<?xml version="1.0" encoding="UTF-8" standalone="no"?>
<!-- translate-xy="150,138" -->

<svg
   xmlns:dc="http://purl.org/dc/elements/1.1/"
   xmlns:cc="http://creativecommons.org/ns#"
   xmlns:rdf="http://www.w3.org/1999/02/22-rdf-syntax-ns#"
   xmlns:svg="http://www.w3.org/2000/svg"
   xmlns="http://www.w3.org/2000/svg"
   xmlns:sodipodi="http://sodipodi.sourceforge.net/DTD/sodipodi-0.dtd"
   xmlns:inkscape="http://www.inkscape.org/namespaces/inkscape"
   width="300"
   height="300"
   viewBox="0 0 300 300"
   version="1.1"
   id="svg8"
   sodipodi:docname="misc-double-circle-logo-000000.svg"
   inkscape:version="1.0.1 (3bc2e813f5, 2020-09-07)">
  <metadata
     id="metadata14">
    <rdf:RDF>
      <cc:Work
         rdf:about="">
        <dc:format>image/svg+xml</dc:format>
        <dc:type
           rdf:resource="http://purl.org/dc/dcmitype/StillImage" />
        <dc:title />
      </cc:Work>
    </rdf:RDF>
  </metadata>
  <defs
     id="defs12" />
  <sodipodi:namedview
     pagecolor="#000000"
     bordercolor="#666666"
     borderopacity="1"
     objecttolerance="10"
     gridtolerance="10"
     guidetolerance="10"
     inkscape:pageopacity="0"
     inkscape:pageshadow="2"
     inkscape:window-width="1366"
     inkscape:window-height="705"
     id="namedview10"
     showgrid="false"
     inkscape:zoom="1.5733332"
     inkscape:cx="185.3079"
     inkscape:cy="166.2738"
     inkscape:window-x="-8"
     inkscape:window-y="-8"
     inkscape:window-maximized="1"
     inkscape:current-layer="svg8"
     inkscape:showpageshadow="false"
     inkscape:document-rotation="0" />
  <!-- <circle
     style="fill:none;fill-opacity:1;stroke:#000000;stroke-width:2.5;stroke-miterlimit:4;stroke-dasharray:none;stroke-opacity:1"
     id="circle9"
     cy="150"
     cx="150"
     r="101.75" />
  <circle
     cx="150"
     cy="150"
     id="circle10"
     style="fill:none;fill-opacity:1;stroke:#000000;stroke-width:2.50883;stroke-miterlimit:4;stroke-dasharray:none;stroke-opacity:1"
     r="140.74559" /> -->
<g transform="translate(18.4, 123.7) rotate(-75) "> <g
     aria-label="C"
     transform="scale(0.94208953,1.0614702)"
     style="font-style:normal;font-weight:normal;font-size:9.9159708px;line-height:1.25;font-family:sans-serif;letter-spacing:0px;word-spacing:0px;fill:#000000;fill-opacity:1;stroke:none;stroke-width:0.2478992"
     id="text826">
    <path
       d="m 17.044022,16.451345 h -3.980174 q -0.07625,1.00648 -0.365993,1.753716 -0.289744,0.747235 -0.777735,1.235226 -0.48799,0.50324 -1.189477,0.747235 -0.701486,0.228746 -1.6012188,0.228746 -0.7167361,0 -1.2809752,-0.182996 Q 7.2994595,20.050275 6.8419684,19.699532 6.4302263,19.364038 6.1099825,18.876048 5.8049884,18.388057 5.5914925,17.793319 5.3017481,17.000334 5.1645007,15.993853 5.0272534,14.987373 5.0272534,13.767396 v -3.049941 q 0,-0.9454816 0.091498,-1.7994652 Q 5.2102498,8.0640063 5.4237457,7.3472701 5.667741,6.4475375 6.0947328,5.7613007 6.5217245,5.0598142 7.1317128,4.6633219 7.5282051,4.3735775 8.0314454,4.2210804 q 0.51849,-0.152497 1.1132286,-0.152497 0.991231,0 1.692717,0.2744947 0.716736,0.2744947 1.189477,0.8082344 0.472741,0.5337397 0.716737,1.3114747 0.259245,0.7624853 0.335493,1.7537162 h 3.980173 Q 16.891525,6.5085363 16.312036,5.1360628 15.732547,3.7635892 14.741316,2.8181075 13.750085,1.857376 12.347112,1.338886 10.944139,0.820396 9.144674,0.820396 q -1.2657256,0 -2.3484547,0.3354935 Q 5.7134901,1.4761334 4.8290072,2.0861216 3.8377763,2.7723584 3.075291,3.7483395 2.3280554,4.7243207 1.8553145,5.9595469 1.4283228,7.0117766 1.2148269,8.2317531 1.001331,9.4364798 1.001331,10.747955 v 3.019441 q 0,1.387724 0.2287456,2.653449 0.2287456,1.265726 0.6709871,2.333205 0.4422414,1.082729 1.0979788,1.982462 0.670987,0.884483 1.5249706,1.52497 0.9149823,0.670988 2.07396,1.03698 1.1589776,0.365993 2.5314511,0.365993 1.7079668,0 3.1109398,-0.50324 1.402973,-0.51849 2.424703,-1.463972 1.021731,-0.945481 1.631719,-2.272206 0.609988,-1.326724 0.747236,-2.973692 z"
       style="font-style:normal;font-variant:normal;font-weight:bold;font-stretch:normal;font-size:31.23139763px;font-family:'Roboto Mono';-inkscape-font-specification:'Roboto Mono Bold';fill:#000000;fill-opacity:1;stroke-width:0.2478992"
       id="path815" />
  </g>

 </g><g transform="translate(24.8, 101.1) rotate(-65) "> <g
     aria-label="o"
     transform="scale(0.95677922,1.0451732)"
     style="font-style:normal;font-weight:normal;font-size:10.15703297px;line-height:1.25;font-family:sans-serif;letter-spacing:0px;word-spacing:0px;fill:#000000;fill-opacity:1;stroke:none;stroke-width:0.25392577"
     id="text826">
    <path
       d="m 0.97603546,15.098557 v 0.328029 q 0,1.858831 0.53109474,3.436495 0.5310948,1.562044 1.5620434,2.717956 0.9997077,1.155912 2.4680285,1.81197 1.4839412,0.640438 3.3740137,0.640438 1.8744522,0 3.3427732,-0.640438 1.46832,-0.656058 2.483649,-1.81197 0.999707,-1.155912 1.530802,-2.717956 0.531095,-1.577664 0.531095,-3.436495 v -0.328029 q 0,-1.843211 -0.531095,-3.405255 Q 15.737345,10.115638 14.737638,8.9597263 13.706689,7.8038142 12.238368,7.147756 10.770047,6.4916978 8.8799749,6.4916978 q -1.874452,0 -3.3427728,0.6560582 Q 4.0688813,7.8038142 3.0691736,8.9597263 2.038225,10.115638 1.5071302,11.693302 0.97603546,13.255346 0.97603546,15.098557 Z m 4.03007194,0.328029 v -0.328029 q 0,-1.07781 0.218686,-2.030657 0.2343065,-0.968467 0.7029196,-1.702627 0.468613,-0.749781 1.2027734,-1.171532 0.7341603,-0.4217522 1.7494885,-0.4217522 1.0309487,0 1.7651091,0.4217522 0.73416,0.421751 1.202773,1.171532 0.452993,0.73416 0.671679,1.702627 0.234306,0.952847 0.234306,2.030657 v 0.328029 q 0,1.109051 -0.234306,2.077518 -0.218686,0.968466 -0.671679,1.687006 -0.468613,0.749781 -1.202773,1.171533 -0.7341604,0.421752 -1.7338682,0.421752 -1.0309486,0 -1.7807294,-0.421752 Q 6.396326,19.940891 5.927713,19.19111 5.4590999,18.47257 5.2247934,17.504104 5.0061074,16.535637 5.0061074,15.426586 Z"
       style="font-style:normal;font-variant:normal;font-weight:bold;font-stretch:normal;font-size:31.99064827px;font-family:'Roboto Mono';-inkscape-font-specification:'Roboto Mono Bold';fill:#000000;fill-opacity:1;stroke-width:0.25392577"
       id="path815" />
  </g>

 </g><g transform="translate(35.1, 80.3) rotate(-55) "> <g
     aria-label="n"
     transform="scale(0.97991698,1.0204946)"
     style="font-style:normal;font-weight:normal;font-size:10.57997036px;line-height:1.25;font-family:sans-serif;letter-spacing:0px;word-spacing:0px;fill:#000000;fill-opacity:1;stroke:none;stroke-width:0.26449922"
     id="text826">
    <path
       d="M 0.95522922,24.579184 H 5.1693837 V 12.721869 c 0.1627087,-0.271181 0.3471118,-0.515244 0.5532094,-0.732189 0.2060977,-0.227792 0.4338898,-0.423043 0.6833764,-0.585751 0.3037229,-0.206098 0.6454111,-0.363383 1.0250646,-0.471855 0.3905008,-0.108473 0.818967,-0.162709 1.2853985,-0.162709 0.5423622,0 1.0250647,0.05424 1.4481074,0.162709 0.433889,0.108472 0.802696,0.303723 1.106419,0.585751 0.303723,0.271181 0.536938,0.645411 0.699647,1.12269 0.162709,0.466431 0.244063,1.057606 0.244063,1.773524 v 10.165145 h 4.197884 V 13.677703 c 0,-1.258281 -0.146438,-2.332158 -0.439314,-3.221632 C 15.680364,9.5665972 15.268168,8.8398319 14.736653,8.2757752 14.194291,7.7117185 13.54888,7.2995233 12.80042,7.0391894 12.062807,6.7788555 11.249264,6.6486886 10.35979,6.6486886 c -0.6942235,0 -1.3504818,0.097625 -1.9687747,0.2928756 C 7.7727224,7.1368146 7.203242,7.4188429 6.6825743,7.7876492 6.3680042,8.0045941 6.0697049,8.2540808 5.7876766,8.5361091 5.5164955,8.8072902 5.2615852,9.1110131 5.0229459,9.4472776 L 4.762612,6.9741059 H 0.95522922 Z"
       style="font-style:normal;font-variant:normal;font-weight:bold;font-stretch:normal;font-size:33.32273483px;font-family:'Roboto Mono';-inkscape-font-specification:'Roboto Mono Bold';fill:#000000;fill-opacity:1;stroke-width:0.26449922"
       id="path818"
       inkscape:connector-curvature="0"
       sodipodi:nodetypes="ccccccscccsccssccsscscccc" />
  </g>

 </g><g transform="translate(49.3, 61.3) rotate(-45) "> <g
     aria-label="t"
     transform="scale(0.97692725,1.0236177)"
     style="font-style:normal;font-weight:normal;font-size:10.4605608px;line-height:1.25;font-family:sans-serif;letter-spacing:0px;word-spacing:0px;fill:#000000;fill-opacity:1;stroke:none;stroke-width:0.26151398"
     id="text826">
    <path
       d="M 9.215023,2.6704246 H 5.0484313 V 6.9174524 H 0.9461885 V 10.0062 h 4.1022428 v 8.23666 q 0,1.705246 0.4343551,2.911788 0.4504423,1.206542 1.2708909,1.978729 0.8043613,0.788274 1.9304672,1.15828 1.1421931,0.370006 2.5096075,0.370006 0.740012,0 1.480025,-0.08044 0.756099,-0.06435 1.44785,-0.193047 0.691751,-0.128697 1.286978,-0.321744 0.611315,-0.193047 1.061757,-0.450442 L 16.036007,20.73638 q -0.28957,0.08044 -0.723925,0.160872 -0.418268,0.08044 -0.900885,0.144785 -0.498704,0.08044 -1.04567,0.144785 -0.530878,0.04826 -1.029582,0.04826 -0.691751,0 -1.270891,-0.160872 Q 10.485914,20.91334 10.067646,20.511159 9.6654653,20.141153 9.4402441,19.513751 9.215023,18.870262 9.215023,17.905028 V 10.0062 H 15.73035 V 6.9174524 H 9.215023 Z"
       style="font-style:normal;font-variant:normal;font-weight:bold;font-stretch:normal;font-size:32.94664001px;font-family:'Roboto Mono';-inkscape-font-specification:'Roboto Mono Bold';fill:#000000;fill-opacity:1;stroke-width:0.26151398"
       id="path815" />
  </g>

 </g><g transform="translate(65.9, 45.1) rotate(-35) "> <g
     aria-label="a"
     transform="scale(0.97748117,1.0230376)"
     style="font-style:normal;font-weight:normal;font-size:10.40345955px;line-height:1.25;font-family:sans-serif;letter-spacing:0px;word-spacing:0px;fill:#000000;fill-opacity:1;stroke:none;stroke-width:0.26008642"
     id="text826">
    <path
       d="m 12.238424,24.538427 h 4.223845 c 0.02231,-0.754051 -0.348504,-1.517808 -0.511982,-2.130849 -0.106663,-0.618644 -0.159994,-1.354617 -0.159994,-2.207919 v -7.551722 c 0,-1.00263 -0.18666,-1.877265 -0.559979,-2.623904 C 14.856994,9.2667275 14.350346,8.6374172 13.71037,8.1361023 13.049061,7.6347874 12.275756,7.2614677 11.390455,7.0161434 10.505154,6.7601528 9.5451896,6.6321575 8.5105608,6.6321575 c -1.1412914,0 -2.1599206,0.1493279 -3.0558877,0.4479836 C 4.5693723,7.3681305 3.8173999,7.7627827 3.198756,8.2640976 2.5801121,8.7654125 2.1054628,9.3413914 1.7748083,9.9920341 1.45482,10.632011 1.2948259,11.309319 1.2948259,12.023959 h 4.1438478 c 0,-0.319988 0.053331,-0.61331 0.1599941,-0.879967 0.1066627,-0.277323 0.27199,-0.511981 0.4959818,-0.703974 0.234658,-0.213326 0.5333137,-0.378653 0.8959671,-0.4959821 0.3733196,-0.1173291 0.8053037,-0.1759936 1.2959523,-0.1759936 0.5546463,0 1.0399619,0.069331 1.4559466,0.2079924 0.4266514,0.1386613 0.7839714,0.3359873 1.0719604,0.5919783 0.277323,0.245324 0.485316,0.538647 0.623977,0.879968 0.138662,0.341321 0.207993,0.73064 0.207993,1.167957 v 1.08796 H 9.0065426 c -1.2586204,0 -2.3839124,0.117329 -3.375876,0.351987 -0.9812973,0.223991 -1.8079336,0.559979 -2.4799089,1.007963 -0.7359729,0.479982 -1.2906192,1.08796 -1.6639388,1.823933 -0.3733196,0.735973 -0.55997945,1.583941 -0.55997945,2.543906 0,0.735973 0.14399475,1.423948 0.43198415,2.063924 0.2986557,0.629311 0.7146404,1.173291 1.2479541,1.63194 0.5226475,0.45865 1.1519577,0.81597 1.8879307,1.071961 0.7466392,0.255991 1.5679423,0.383986 2.4639094,0.383986 0.5439801,0 1.0559613,-0.05333 1.5359436,-0.159994 0.4799823,-0.106663 0.9226327,-0.250657 1.3279512,-0.431984 0.3946524,-0.181327 0.7573054,-0.389319 1.0879604,-0.623977 0.330654,-0.245325 0.623976,-0.506649 0.879967,-0.783972 0.04267,0.319989 0.101331,0.629311 0.175994,0.927966 0.07466,0.28799 0.165327,0.813564 0.27199,1.02689 z M 7.7905873,21.319618 c -0.4479835,0 -0.8426357,-0.05333 -1.1839565,-0.159994 C 6.26531,21.042295 5.9826537,20.892967 5.7586619,20.71164 5.5240039,20.508981 5.3480104,20.26899 5.2306813,19.991667 5.1133523,19.703678 5.0546878,19.394356 5.0546878,19.063701 c 0,-0.405319 0.074664,-0.778638 0.2239918,-1.119959 0.1599941,-0.341321 0.3946521,-0.634643 0.7039741,-0.879968 0.3413208,-0.266657 0.7839712,-0.469316 1.3279512,-0.607977 0.54398,-0.138662 1.1999559,-0.207993 1.9679277,-0.207993 h 2.3679134 v 3.087887 c -0.138662,0.245324 -0.330655,0.490648 -0.575979,0.735973 -0.234658,0.234658 -0.517314,0.44265 -0.847969,0.623977 -0.3306546,0.191993 -0.6986411,0.346654 -1.1039595,0.463983 -0.4053185,0.106663 -0.8479689,0.159994 -1.3279512,0.159994 z"
       style="font-style:normal;font-variant:normal;font-weight:bold;font-stretch:normal;font-size:32.76679611px;font-family:'Roboto Mono';-inkscape-font-specification:'Roboto Mono Bold';fill:#000000;fill-opacity:1;stroke-width:0.26008642"
       id="path815"
       inkscape:connector-curvature="0"
       sodipodi:nodetypes="cccsscccscsccccccscccscsccsscccsscccccscccscccscccccs" />
  </g>

 </g><g transform="translate(85.7, 32.2) rotate(-25) "> <g
     aria-label="c"
     transform="scale(0.98202548,1.0183035)"
     style="font-style:normal;font-weight:normal;font-size:10.41426468px;line-height:1.25;font-family:sans-serif;letter-spacing:0px;word-spacing:0px;fill:#000000;fill-opacity:1;stroke:none;stroke-width:0.26035658"
     id="text826">
    <path
       d="m 8.9944199,21.317659 q -1.1371381,0 -1.8898916,-0.448449 Q 6.3677909,20.404745 5.9353581,19.651991 5.4708932,18.899238 5.2947168,17.938276 5.1185405,16.961298 5.1185405,15.920256 v -0.512513 q 0,-1.025026 0.1761763,-1.985987 0.1921924,-0.976978 0.6406413,-1.729732 0.4484488,-0.752753 1.1851862,-1.201202 0.7367375,-0.464465 1.8578596,-0.464465 0.7687695,0 1.4094111,0.256257 0.640641,0.256256 1.105106,0.704705 0.448449,0.432433 0.688689,1.041042 0.256257,0.592593 0.240241,1.265266 h 3.907911 Q 16.345778,11.804136 15.801233,10.586918 15.272704,9.3536837 14.295726,8.4888181 13.318748,7.6239524 11.973402,7.1434715 10.628055,6.6629906 9.042468,6.6629906 q -2.0020038,0 -3.5075107,0.6886893 -1.5055069,0.6886893 -2.5145168,1.8738756 -1.025026,1.2012025 -1.537539,2.7867895 -0.51251293,1.585587 -0.51251293,3.395398 v 0.512513 q 0,1.809812 0.51251293,3.395399 0.5285291,1.585587 1.537539,2.770773 1.0090099,1.185186 2.5145168,1.873876 1.5215229,0.688689 3.5235268,0.688689 1.4734749,0 2.7867889,-0.464465 1.329331,-0.480481 2.322325,-1.313314 1.00901,-0.816818 1.585587,-1.93794 0.592593,-1.137138 0.576577,-2.450453 h -3.907911 q 0.01602,0.640641 -0.256257,1.16917 -0.272273,0.512513 -0.752753,0.880882 -0.480481,0.368369 -1.105107,0.576577 -0.6246247,0.208209 -1.3133141,0.208209 z"
       style="font-style:normal;font-variant:normal;font-weight:bold;font-stretch:normal;font-size:32.80083084px;font-family:'Roboto Mono';-inkscape-font-specification:'Roboto Mono Bold';fill:#000000;fill-opacity:1;stroke-width:0.26035658"
       id="path814" />
  </g>

 </g><g transform="translate(107, 22.8) rotate(-15) "> <g
     aria-label="t"
     transform="scale(0.97692725,1.0236177)"
     style="font-style:normal;font-weight:normal;font-size:10.4605608px;line-height:1.25;font-family:sans-serif;letter-spacing:0px;word-spacing:0px;fill:#000000;fill-opacity:1;stroke:none;stroke-width:0.26151398"
     id="text826">
    <path
       d="M 9.215023,2.6704246 H 5.0484313 V 6.9174524 H 0.9461885 V 10.0062 h 4.1022428 v 8.23666 q 0,1.705246 0.4343551,2.911788 0.4504423,1.206542 1.2708909,1.978729 0.8043613,0.788274 1.9304672,1.15828 1.1421931,0.370006 2.5096075,0.370006 0.740012,0 1.480025,-0.08044 0.756099,-0.06435 1.44785,-0.193047 0.691751,-0.128697 1.286978,-0.321744 0.611315,-0.193047 1.061757,-0.450442 L 16.036007,20.73638 q -0.28957,0.08044 -0.723925,0.160872 -0.418268,0.08044 -0.900885,0.144785 -0.498704,0.08044 -1.04567,0.144785 -0.530878,0.04826 -1.029582,0.04826 -0.691751,0 -1.270891,-0.160872 Q 10.485914,20.91334 10.067646,20.511159 9.6654653,20.141153 9.4402441,19.513751 9.215023,18.870262 9.215023,17.905028 V 10.0062 H 15.73035 V 6.9174524 H 9.215023 Z"
       style="font-style:normal;font-variant:normal;font-weight:bold;font-stretch:normal;font-size:32.94664001px;font-family:'Roboto Mono';-inkscape-font-specification:'Roboto Mono Bold';fill:#000000;fill-opacity:1;stroke-width:0.26151398"
       id="path815" />
  </g>

 </g><g transform="translate(176.6, 18.7) rotate(15) "> <g
     aria-label="C"
     transform="scale(0.94208953,1.0614702)"
     style="font-style:normal;font-weight:normal;font-size:9.9159708px;line-height:1.25;font-family:sans-serif;letter-spacing:0px;word-spacing:0px;fill:#000000;fill-opacity:1;stroke:none;stroke-width:0.2478992"
     id="text826">
    <path
       d="m 17.044022,16.451345 h -3.980174 q -0.07625,1.00648 -0.365993,1.753716 -0.289744,0.747235 -0.777735,1.235226 -0.48799,0.50324 -1.189477,0.747235 -0.701486,0.228746 -1.6012188,0.228746 -0.7167361,0 -1.2809752,-0.182996 Q 7.2994595,20.050275 6.8419684,19.699532 6.4302263,19.364038 6.1099825,18.876048 5.8049884,18.388057 5.5914925,17.793319 5.3017481,17.000334 5.1645007,15.993853 5.0272534,14.987373 5.0272534,13.767396 v -3.049941 q 0,-0.9454816 0.091498,-1.7994652 Q 5.2102498,8.0640063 5.4237457,7.3472701 5.667741,6.4475375 6.0947328,5.7613007 6.5217245,5.0598142 7.1317128,4.6633219 7.5282051,4.3735775 8.0314454,4.2210804 q 0.51849,-0.152497 1.1132286,-0.152497 0.991231,0 1.692717,0.2744947 0.716736,0.2744947 1.189477,0.8082344 0.472741,0.5337397 0.716737,1.3114747 0.259245,0.7624853 0.335493,1.7537162 h 3.980173 Q 16.891525,6.5085363 16.312036,5.1360628 15.732547,3.7635892 14.741316,2.8181075 13.750085,1.857376 12.347112,1.338886 10.944139,0.820396 9.144674,0.820396 q -1.2657256,0 -2.3484547,0.3354935 Q 5.7134901,1.4761334 4.8290072,2.0861216 3.8377763,2.7723584 3.075291,3.7483395 2.3280554,4.7243207 1.8553145,5.9595469 1.4283228,7.0117766 1.2148269,8.2317531 1.001331,9.4364798 1.001331,10.747955 v 3.019441 q 0,1.387724 0.2287456,2.653449 0.2287456,1.265726 0.6709871,2.333205 0.4422414,1.082729 1.0979788,1.982462 0.670987,0.884483 1.5249706,1.52497 0.9149823,0.670988 2.07396,1.03698 1.1589776,0.365993 2.5314511,0.365993 1.7079668,0 3.1109398,-0.50324 1.402973,-0.51849 2.424703,-1.463972 1.021731,-0.945481 1.631719,-2.272206 0.609988,-1.326724 0.747236,-2.973692 z"
       style="font-style:normal;font-variant:normal;font-weight:bold;font-stretch:normal;font-size:31.23139763px;font-family:'Roboto Mono';-inkscape-font-specification:'Roboto Mono Bold';fill:#000000;fill-opacity:1;stroke-width:0.2478992"
       id="path815" />
  </g>

 </g><g transform="translate(199, 25.1) rotate(25) "> <g
     aria-label="o"
     transform="scale(0.95677922,1.0451732)"
     style="font-style:normal;font-weight:normal;font-size:10.15703297px;line-height:1.25;font-family:sans-serif;letter-spacing:0px;word-spacing:0px;fill:#000000;fill-opacity:1;stroke:none;stroke-width:0.25392577"
     id="text826">
    <path
       d="m 0.97603546,15.098557 v 0.328029 q 0,1.858831 0.53109474,3.436495 0.5310948,1.562044 1.5620434,2.717956 0.9997077,1.155912 2.4680285,1.81197 1.4839412,0.640438 3.3740137,0.640438 1.8744522,0 3.3427732,-0.640438 1.46832,-0.656058 2.483649,-1.81197 0.999707,-1.155912 1.530802,-2.717956 0.531095,-1.577664 0.531095,-3.436495 v -0.328029 q 0,-1.843211 -0.531095,-3.405255 Q 15.737345,10.115638 14.737638,8.9597263 13.706689,7.8038142 12.238368,7.147756 10.770047,6.4916978 8.8799749,6.4916978 q -1.874452,0 -3.3427728,0.6560582 Q 4.0688813,7.8038142 3.0691736,8.9597263 2.038225,10.115638 1.5071302,11.693302 0.97603546,13.255346 0.97603546,15.098557 Z m 4.03007194,0.328029 v -0.328029 q 0,-1.07781 0.218686,-2.030657 0.2343065,-0.968467 0.7029196,-1.702627 0.468613,-0.749781 1.2027734,-1.171532 0.7341603,-0.4217522 1.7494885,-0.4217522 1.0309487,0 1.7651091,0.4217522 0.73416,0.421751 1.202773,1.171532 0.452993,0.73416 0.671679,1.702627 0.234306,0.952847 0.234306,2.030657 v 0.328029 q 0,1.109051 -0.234306,2.077518 -0.218686,0.968466 -0.671679,1.687006 -0.468613,0.749781 -1.202773,1.171533 -0.7341604,0.421752 -1.7338682,0.421752 -1.0309486,0 -1.7807294,-0.421752 Q 6.396326,19.940891 5.927713,19.19111 5.4590999,18.47257 5.2247934,17.504104 5.0061074,16.535637 5.0061074,15.426586 Z"
       style="font-style:normal;font-variant:normal;font-weight:bold;font-stretch:normal;font-size:31.99064827px;font-family:'Roboto Mono';-inkscape-font-specification:'Roboto Mono Bold';fill:#000000;fill-opacity:1;stroke-width:0.25392577"
       id="path815" />
  </g>

 </g><g transform="translate(219.9, 35.7) rotate(35) "> <g
     aria-label="n"
     transform="scale(0.97991698,1.0204946)"
     style="font-style:normal;font-weight:normal;font-size:10.57997036px;line-height:1.25;font-family:sans-serif;letter-spacing:0px;word-spacing:0px;fill:#000000;fill-opacity:1;stroke:none;stroke-width:0.26449922"
     id="text826">
    <path
       d="M 0.95522922,24.579184 H 5.1693837 V 12.721869 c 0.1627087,-0.271181 0.3471118,-0.515244 0.5532094,-0.732189 0.2060977,-0.227792 0.4338898,-0.423043 0.6833764,-0.585751 0.3037229,-0.206098 0.6454111,-0.363383 1.0250646,-0.471855 0.3905008,-0.108473 0.818967,-0.162709 1.2853985,-0.162709 0.5423622,0 1.0250647,0.05424 1.4481074,0.162709 0.433889,0.108472 0.802696,0.303723 1.106419,0.585751 0.303723,0.271181 0.536938,0.645411 0.699647,1.12269 0.162709,0.466431 0.244063,1.057606 0.244063,1.773524 v 10.165145 h 4.197884 V 13.677703 c 0,-1.258281 -0.146438,-2.332158 -0.439314,-3.221632 C 15.680364,9.5665972 15.268168,8.8398319 14.736653,8.2757752 14.194291,7.7117185 13.54888,7.2995233 12.80042,7.0391894 12.062807,6.7788555 11.249264,6.6486886 10.35979,6.6486886 c -0.6942235,0 -1.3504818,0.097625 -1.9687747,0.2928756 C 7.7727224,7.1368146 7.203242,7.4188429 6.6825743,7.7876492 6.3680042,8.0045941 6.0697049,8.2540808 5.7876766,8.5361091 5.5164955,8.8072902 5.2615852,9.1110131 5.0229459,9.4472776 L 4.762612,6.9741059 H 0.95522922 Z"
       style="font-style:normal;font-variant:normal;font-weight:bold;font-stretch:normal;font-size:33.32273483px;font-family:'Roboto Mono';-inkscape-font-specification:'Roboto Mono Bold';fill:#000000;fill-opacity:1;stroke-width:0.26449922"
       id="path818"
       inkscape:connector-curvature="0"
       sodipodi:nodetypes="ccccccscccsccssccsscscccc" />
  </g>

 </g><g transform="translate(238.6, 49.5) rotate(45) "> <g
     aria-label="t"
     transform="scale(0.97692725,1.0236177)"
     style="font-style:normal;font-weight:normal;font-size:10.4605608px;line-height:1.25;font-family:sans-serif;letter-spacing:0px;word-spacing:0px;fill:#000000;fill-opacity:1;stroke:none;stroke-width:0.26151398"
     id="text826">
    <path
       d="M 9.215023,2.6704246 H 5.0484313 V 6.9174524 H 0.9461885 V 10.0062 h 4.1022428 v 8.23666 q 0,1.705246 0.4343551,2.911788 0.4504423,1.206542 1.2708909,1.978729 0.8043613,0.788274 1.9304672,1.15828 1.1421931,0.370006 2.5096075,0.370006 0.740012,0 1.480025,-0.08044 0.756099,-0.06435 1.44785,-0.193047 0.691751,-0.128697 1.286978,-0.321744 0.611315,-0.193047 1.061757,-0.450442 L 16.036007,20.73638 q -0.28957,0.08044 -0.723925,0.160872 -0.418268,0.08044 -0.900885,0.144785 -0.498704,0.08044 -1.04567,0.144785 -0.530878,0.04826 -1.029582,0.04826 -0.691751,0 -1.270891,-0.160872 Q 10.485914,20.91334 10.067646,20.511159 9.6654653,20.141153 9.4402441,19.513751 9.215023,18.870262 9.215023,17.905028 V 10.0062 H 15.73035 V 6.9174524 H 9.215023 Z"
       style="font-style:normal;font-variant:normal;font-weight:bold;font-stretch:normal;font-size:32.94664001px;font-family:'Roboto Mono';-inkscape-font-specification:'Roboto Mono Bold';fill:#000000;fill-opacity:1;stroke-width:0.26151398"
       id="path815" />
  </g>

 </g><g transform="translate(254.8, 66.5) rotate(55) "> <g
     aria-label="a"
     transform="scale(0.97748117,1.0230376)"
     style="font-style:normal;font-weight:normal;font-size:10.40345955px;line-height:1.25;font-family:sans-serif;letter-spacing:0px;word-spacing:0px;fill:#000000;fill-opacity:1;stroke:none;stroke-width:0.26008642"
     id="text826">
    <path
       d="m 12.238424,24.538427 h 4.223845 c 0.02231,-0.754051 -0.348504,-1.517808 -0.511982,-2.130849 -0.106663,-0.618644 -0.159994,-1.354617 -0.159994,-2.207919 v -7.551722 c 0,-1.00263 -0.18666,-1.877265 -0.559979,-2.623904 C 14.856994,9.2667275 14.350346,8.6374172 13.71037,8.1361023 13.049061,7.6347874 12.275756,7.2614677 11.390455,7.0161434 10.505154,6.7601528 9.5451896,6.6321575 8.5105608,6.6321575 c -1.1412914,0 -2.1599206,0.1493279 -3.0558877,0.4479836 C 4.5693723,7.3681305 3.8173999,7.7627827 3.198756,8.2640976 2.5801121,8.7654125 2.1054628,9.3413914 1.7748083,9.9920341 1.45482,10.632011 1.2948259,11.309319 1.2948259,12.023959 h 4.1438478 c 0,-0.319988 0.053331,-0.61331 0.1599941,-0.879967 0.1066627,-0.277323 0.27199,-0.511981 0.4959818,-0.703974 0.234658,-0.213326 0.5333137,-0.378653 0.8959671,-0.4959821 0.3733196,-0.1173291 0.8053037,-0.1759936 1.2959523,-0.1759936 0.5546463,0 1.0399619,0.069331 1.4559466,0.2079924 0.4266514,0.1386613 0.7839714,0.3359873 1.0719604,0.5919783 0.277323,0.245324 0.485316,0.538647 0.623977,0.879968 0.138662,0.341321 0.207993,0.73064 0.207993,1.167957 v 1.08796 H 9.0065426 c -1.2586204,0 -2.3839124,0.117329 -3.375876,0.351987 -0.9812973,0.223991 -1.8079336,0.559979 -2.4799089,1.007963 -0.7359729,0.479982 -1.2906192,1.08796 -1.6639388,1.823933 -0.3733196,0.735973 -0.55997945,1.583941 -0.55997945,2.543906 0,0.735973 0.14399475,1.423948 0.43198415,2.063924 0.2986557,0.629311 0.7146404,1.173291 1.2479541,1.63194 0.5226475,0.45865 1.1519577,0.81597 1.8879307,1.071961 0.7466392,0.255991 1.5679423,0.383986 2.4639094,0.383986 0.5439801,0 1.0559613,-0.05333 1.5359436,-0.159994 0.4799823,-0.106663 0.9226327,-0.250657 1.3279512,-0.431984 0.3946524,-0.181327 0.7573054,-0.389319 1.0879604,-0.623977 0.330654,-0.245325 0.623976,-0.506649 0.879967,-0.783972 0.04267,0.319989 0.101331,0.629311 0.175994,0.927966 0.07466,0.28799 0.165327,0.813564 0.27199,1.02689 z M 7.7905873,21.319618 c -0.4479835,0 -0.8426357,-0.05333 -1.1839565,-0.159994 C 6.26531,21.042295 5.9826537,20.892967 5.7586619,20.71164 5.5240039,20.508981 5.3480104,20.26899 5.2306813,19.991667 5.1133523,19.703678 5.0546878,19.394356 5.0546878,19.063701 c 0,-0.405319 0.074664,-0.778638 0.2239918,-1.119959 0.1599941,-0.341321 0.3946521,-0.634643 0.7039741,-0.879968 0.3413208,-0.266657 0.7839712,-0.469316 1.3279512,-0.607977 0.54398,-0.138662 1.1999559,-0.207993 1.9679277,-0.207993 h 2.3679134 v 3.087887 c -0.138662,0.245324 -0.330655,0.490648 -0.575979,0.735973 -0.234658,0.234658 -0.517314,0.44265 -0.847969,0.623977 -0.3306546,0.191993 -0.6986411,0.346654 -1.1039595,0.463983 -0.4053185,0.106663 -0.8479689,0.159994 -1.3279512,0.159994 z"
       style="font-style:normal;font-variant:normal;font-weight:bold;font-stretch:normal;font-size:32.76679611px;font-family:'Roboto Mono';-inkscape-font-specification:'Roboto Mono Bold';fill:#000000;fill-opacity:1;stroke-width:0.26008642"
       id="path815"
       inkscape:connector-curvature="0"
       sodipodi:nodetypes="cccsscccscsccccccscccscsccsscccsscccccscccscccscccccs" />
  </g>

 </g><g transform="translate(267.8, 85.5) rotate(65) "> <g
     aria-label="c"
     transform="scale(0.98202548,1.0183035)"
     style="font-style:normal;font-weight:normal;font-size:10.41426468px;line-height:1.25;font-family:sans-serif;letter-spacing:0px;word-spacing:0px;fill:#000000;fill-opacity:1;stroke:none;stroke-width:0.26035658"
     id="text826">
    <path
       d="m 8.9944199,21.317659 q -1.1371381,0 -1.8898916,-0.448449 Q 6.3677909,20.404745 5.9353581,19.651991 5.4708932,18.899238 5.2947168,17.938276 5.1185405,16.961298 5.1185405,15.920256 v -0.512513 q 0,-1.025026 0.1761763,-1.985987 0.1921924,-0.976978 0.6406413,-1.729732 0.4484488,-0.752753 1.1851862,-1.201202 0.7367375,-0.464465 1.8578596,-0.464465 0.7687695,0 1.4094111,0.256257 0.640641,0.256256 1.105106,0.704705 0.448449,0.432433 0.688689,1.041042 0.256257,0.592593 0.240241,1.265266 h 3.907911 Q 16.345778,11.804136 15.801233,10.586918 15.272704,9.3536837 14.295726,8.4888181 13.318748,7.6239524 11.973402,7.1434715 10.628055,6.6629906 9.042468,6.6629906 q -2.0020038,0 -3.5075107,0.6886893 -1.5055069,0.6886893 -2.5145168,1.8738756 -1.025026,1.2012025 -1.537539,2.7867895 -0.51251293,1.585587 -0.51251293,3.395398 v 0.512513 q 0,1.809812 0.51251293,3.395399 0.5285291,1.585587 1.537539,2.770773 1.0090099,1.185186 2.5145168,1.873876 1.5215229,0.688689 3.5235268,0.688689 1.4734749,0 2.7867889,-0.464465 1.329331,-0.480481 2.322325,-1.313314 1.00901,-0.816818 1.585587,-1.93794 0.592593,-1.137138 0.576577,-2.450453 h -3.907911 q 0.01602,0.640641 -0.256257,1.16917 -0.272273,0.512513 -0.752753,0.880882 -0.480481,0.368369 -1.105107,0.576577 -0.6246247,0.208209 -1.3133141,0.208209 z"
       style="font-style:normal;font-variant:normal;font-weight:bold;font-stretch:normal;font-size:32.80083084px;font-family:'Roboto Mono';-inkscape-font-specification:'Roboto Mono Bold';fill:#000000;fill-opacity:1;stroke-width:0.26035658"
       id="path814" />
  </g>

 </g><g transform="translate(277.1, 107.3) rotate(75) "> <g
     aria-label="t"
     transform="scale(0.97692725,1.0236177)"
     style="font-style:normal;font-weight:normal;font-size:10.4605608px;line-height:1.25;font-family:sans-serif;letter-spacing:0px;word-spacing:0px;fill:#000000;fill-opacity:1;stroke:none;stroke-width:0.26151398"
     id="text826">
    <path
       d="M 9.215023,2.6704246 H 5.0484313 V 6.9174524 H 0.9461885 V 10.0062 h 4.1022428 v 8.23666 q 0,1.705246 0.4343551,2.911788 0.4504423,1.206542 1.2708909,1.978729 0.8043613,0.788274 1.9304672,1.15828 1.1421931,0.370006 2.5096075,0.370006 0.740012,0 1.480025,-0.08044 0.756099,-0.06435 1.44785,-0.193047 0.691751,-0.128697 1.286978,-0.321744 0.611315,-0.193047 1.061757,-0.450442 L 16.036007,20.73638 q -0.28957,0.08044 -0.723925,0.160872 -0.418268,0.08044 -0.900885,0.144785 -0.498704,0.08044 -1.04567,0.144785 -0.530878,0.04826 -1.029582,0.04826 -0.691751,0 -1.270891,-0.160872 Q 10.485914,20.91334 10.067646,20.511159 9.6654653,20.141153 9.4402441,19.513751 9.215023,18.870262 9.215023,17.905028 V 10.0062 H 15.73035 V 6.9174524 H 9.215023 Z"
       style="font-style:normal;font-variant:normal;font-weight:bold;font-stretch:normal;font-size:32.94664001px;font-family:'Roboto Mono';-inkscape-font-specification:'Roboto Mono Bold';fill:#000000;fill-opacity:1;stroke-width:0.26151398"
       id="path815" />
  </g>

 </g> <g transform="translate(45.5, 178.9) rotate(70) "> <g
     aria-label="C"
     transform="scale(0.94208953,1.0614702)"
     style="font-style:normal;font-weight:normal;font-size:9.9159708px;line-height:1.25;font-family:sans-serif;letter-spacing:0px;word-spacing:0px;fill:#000000;fill-opacity:1;stroke:none;stroke-width:0.2478992"
     id="text826">
    <path
       d="m 17.044022,16.451345 h -3.980174 q -0.07625,1.00648 -0.365993,1.753716 -0.289744,0.747235 -0.777735,1.235226 -0.48799,0.50324 -1.189477,0.747235 -0.701486,0.228746 -1.6012188,0.228746 -0.7167361,0 -1.2809752,-0.182996 Q 7.2994595,20.050275 6.8419684,19.699532 6.4302263,19.364038 6.1099825,18.876048 5.8049884,18.388057 5.5914925,17.793319 5.3017481,17.000334 5.1645007,15.993853 5.0272534,14.987373 5.0272534,13.767396 v -3.049941 q 0,-0.9454816 0.091498,-1.7994652 Q 5.2102498,8.0640063 5.4237457,7.3472701 5.667741,6.4475375 6.0947328,5.7613007 6.5217245,5.0598142 7.1317128,4.6633219 7.5282051,4.3735775 8.0314454,4.2210804 q 0.51849,-0.152497 1.1132286,-0.152497 0.991231,0 1.692717,0.2744947 0.716736,0.2744947 1.189477,0.8082344 0.472741,0.5337397 0.716737,1.3114747 0.259245,0.7624853 0.335493,1.7537162 h 3.980173 Q 16.891525,6.5085363 16.312036,5.1360628 15.732547,3.7635892 14.741316,2.8181075 13.750085,1.857376 12.347112,1.338886 10.944139,0.820396 9.144674,0.820396 q -1.2657256,0 -2.3484547,0.3354935 Q 5.7134901,1.4761334 4.8290072,2.0861216 3.8377763,2.7723584 3.075291,3.7483395 2.3280554,4.7243207 1.8553145,5.9595469 1.4283228,7.0117766 1.2148269,8.2317531 1.001331,9.4364798 1.001331,10.747955 v 3.019441 q 0,1.387724 0.2287456,2.653449 0.2287456,1.265726 0.6709871,2.333205 0.4422414,1.082729 1.0979788,1.982462 0.670987,0.884483 1.5249706,1.52497 0.9149823,0.670988 2.07396,1.03698 1.1589776,0.365993 2.5314511,0.365993 1.7079668,0 3.1109398,-0.50324 1.402973,-0.51849 2.424703,-1.463972 1.021731,-0.945481 1.631719,-2.272206 0.609988,-1.326724 0.747236,-2.973692 z"
       style="font-style:normal;font-variant:normal;font-weight:bold;font-stretch:normal;font-size:31.23139763px;font-family:'Roboto Mono';-inkscape-font-specification:'Roboto Mono Bold';fill:#000000;fill-opacity:1;stroke-width:0.2478992"
       id="path815" />
  </g>

 </g><g transform="translate(52.5, 196.8) rotate(60) "> <g
     aria-label="o"
     transform="scale(0.95677922,1.0451732)"
     style="font-style:normal;font-weight:normal;font-size:10.15703297px;line-height:1.25;font-family:sans-serif;letter-spacing:0px;word-spacing:0px;fill:#000000;fill-opacity:1;stroke:none;stroke-width:0.25392577"
     id="text826">
    <path
       d="m 0.97603546,15.098557 v 0.328029 q 0,1.858831 0.53109474,3.436495 0.5310948,1.562044 1.5620434,2.717956 0.9997077,1.155912 2.4680285,1.81197 1.4839412,0.640438 3.3740137,0.640438 1.8744522,0 3.3427732,-0.640438 1.46832,-0.656058 2.483649,-1.81197 0.999707,-1.155912 1.530802,-2.717956 0.531095,-1.577664 0.531095,-3.436495 v -0.328029 q 0,-1.843211 -0.531095,-3.405255 Q 15.737345,10.115638 14.737638,8.9597263 13.706689,7.8038142 12.238368,7.147756 10.770047,6.4916978 8.8799749,6.4916978 q -1.874452,0 -3.3427728,0.6560582 Q 4.0688813,7.8038142 3.0691736,8.9597263 2.038225,10.115638 1.5071302,11.693302 0.97603546,13.255346 0.97603546,15.098557 Z m 4.03007194,0.328029 v -0.328029 q 0,-1.07781 0.218686,-2.030657 0.2343065,-0.968467 0.7029196,-1.702627 0.468613,-0.749781 1.2027734,-1.171532 0.7341603,-0.4217522 1.7494885,-0.4217522 1.0309487,0 1.7651091,0.4217522 0.73416,0.421751 1.202773,1.171532 0.452993,0.73416 0.671679,1.702627 0.234306,0.952847 0.234306,2.030657 v 0.328029 q 0,1.109051 -0.234306,2.077518 -0.218686,0.968466 -0.671679,1.687006 -0.468613,0.749781 -1.202773,1.171533 -0.7341604,0.421752 -1.7338682,0.421752 -1.0309486,0 -1.7807294,-0.421752 Q 6.396326,19.940891 5.927713,19.19111 5.4590999,18.47257 5.2247934,17.504104 5.0061074,16.535637 5.0061074,15.426586 Z"
       style="font-style:normal;font-variant:normal;font-weight:bold;font-stretch:normal;font-size:31.99064827px;font-family:'Roboto Mono';-inkscape-font-specification:'Roboto Mono Bold';fill:#000000;fill-opacity:1;stroke-width:0.25392577"
       id="path815" />
  </g>

 </g><g transform="translate(62.2, 213) rotate(50) "> <g
     aria-label="n"
     transform="scale(0.97991698,1.0204946)"
     style="font-style:normal;font-weight:normal;font-size:10.57997036px;line-height:1.25;font-family:sans-serif;letter-spacing:0px;word-spacing:0px;fill:#000000;fill-opacity:1;stroke:none;stroke-width:0.26449922"
     id="text826">
    <path
       d="M 0.95522922,24.579184 H 5.1693837 V 12.721869 c 0.1627087,-0.271181 0.3471118,-0.515244 0.5532094,-0.732189 0.2060977,-0.227792 0.4338898,-0.423043 0.6833764,-0.585751 0.3037229,-0.206098 0.6454111,-0.363383 1.0250646,-0.471855 0.3905008,-0.108473 0.818967,-0.162709 1.2853985,-0.162709 0.5423622,0 1.0250647,0.05424 1.4481074,0.162709 0.433889,0.108472 0.802696,0.303723 1.106419,0.585751 0.303723,0.271181 0.536938,0.645411 0.699647,1.12269 0.162709,0.466431 0.244063,1.057606 0.244063,1.773524 v 10.165145 h 4.197884 V 13.677703 c 0,-1.258281 -0.146438,-2.332158 -0.439314,-3.221632 C 15.680364,9.5665972 15.268168,8.8398319 14.736653,8.2757752 14.194291,7.7117185 13.54888,7.2995233 12.80042,7.0391894 12.062807,6.7788555 11.249264,6.6486886 10.35979,6.6486886 c -0.6942235,0 -1.3504818,0.097625 -1.9687747,0.2928756 C 7.7727224,7.1368146 7.203242,7.4188429 6.6825743,7.7876492 6.3680042,8.0045941 6.0697049,8.2540808 5.7876766,8.5361091 5.5164955,8.8072902 5.2615852,9.1110131 5.0229459,9.4472776 L 4.762612,6.9741059 H 0.95522922 Z"
       style="font-style:normal;font-variant:normal;font-weight:bold;font-stretch:normal;font-size:33.32273483px;font-family:'Roboto Mono';-inkscape-font-specification:'Roboto Mono Bold';fill:#000000;fill-opacity:1;stroke-width:0.26449922"
       id="path818"
       inkscape:connector-curvature="0"
       sodipodi:nodetypes="ccccccscccsccssccsscscccc" />
  </g>

 </g><g transform="translate(74, 227.5) rotate(40) "> <g
     aria-label="t"
     transform="scale(0.97692725,1.0236177)"
     style="font-style:normal;font-weight:normal;font-size:10.4605608px;line-height:1.25;font-family:sans-serif;letter-spacing:0px;word-spacing:0px;fill:#000000;fill-opacity:1;stroke:none;stroke-width:0.26151398"
     id="text826">
    <path
       d="M 9.215023,2.6704246 H 5.0484313 V 6.9174524 H 0.9461885 V 10.0062 h 4.1022428 v 8.23666 q 0,1.705246 0.4343551,2.911788 0.4504423,1.206542 1.2708909,1.978729 0.8043613,0.788274 1.9304672,1.15828 1.1421931,0.370006 2.5096075,0.370006 0.740012,0 1.480025,-0.08044 0.756099,-0.06435 1.44785,-0.193047 0.691751,-0.128697 1.286978,-0.321744 0.611315,-0.193047 1.061757,-0.450442 L 16.036007,20.73638 q -0.28957,0.08044 -0.723925,0.160872 -0.418268,0.08044 -0.900885,0.144785 -0.498704,0.08044 -1.04567,0.144785 -0.530878,0.04826 -1.029582,0.04826 -0.691751,0 -1.270891,-0.160872 Q 10.485914,20.91334 10.067646,20.511159 9.6654653,20.141153 9.4402441,19.513751 9.215023,18.870262 9.215023,17.905028 V 10.0062 H 15.73035 V 6.9174524 H 9.215023 Z"
       style="font-style:normal;font-variant:normal;font-weight:bold;font-stretch:normal;font-size:32.94664001px;font-family:'Roboto Mono';-inkscape-font-specification:'Roboto Mono Bold';fill:#000000;fill-opacity:1;stroke-width:0.26151398"
       id="path815" />
  </g>

 </g><g transform="translate(89, 239.5) rotate(30) "> <g
     aria-label="a"
     transform="scale(0.97748117,1.0230376)"
     style="font-style:normal;font-weight:normal;font-size:10.40345955px;line-height:1.25;font-family:sans-serif;letter-spacing:0px;word-spacing:0px;fill:#000000;fill-opacity:1;stroke:none;stroke-width:0.26008642"
     id="text826">
    <path
       d="m 12.238424,24.538427 h 4.223845 c 0.02231,-0.754051 -0.348504,-1.517808 -0.511982,-2.130849 -0.106663,-0.618644 -0.159994,-1.354617 -0.159994,-2.207919 v -7.551722 c 0,-1.00263 -0.18666,-1.877265 -0.559979,-2.623904 C 14.856994,9.2667275 14.350346,8.6374172 13.71037,8.1361023 13.049061,7.6347874 12.275756,7.2614677 11.390455,7.0161434 10.505154,6.7601528 9.5451896,6.6321575 8.5105608,6.6321575 c -1.1412914,0 -2.1599206,0.1493279 -3.0558877,0.4479836 C 4.5693723,7.3681305 3.8173999,7.7627827 3.198756,8.2640976 2.5801121,8.7654125 2.1054628,9.3413914 1.7748083,9.9920341 1.45482,10.632011 1.2948259,11.309319 1.2948259,12.023959 h 4.1438478 c 0,-0.319988 0.053331,-0.61331 0.1599941,-0.879967 0.1066627,-0.277323 0.27199,-0.511981 0.4959818,-0.703974 0.234658,-0.213326 0.5333137,-0.378653 0.8959671,-0.4959821 0.3733196,-0.1173291 0.8053037,-0.1759936 1.2959523,-0.1759936 0.5546463,0 1.0399619,0.069331 1.4559466,0.2079924 0.4266514,0.1386613 0.7839714,0.3359873 1.0719604,0.5919783 0.277323,0.245324 0.485316,0.538647 0.623977,0.879968 0.138662,0.341321 0.207993,0.73064 0.207993,1.167957 v 1.08796 H 9.0065426 c -1.2586204,0 -2.3839124,0.117329 -3.375876,0.351987 -0.9812973,0.223991 -1.8079336,0.559979 -2.4799089,1.007963 -0.7359729,0.479982 -1.2906192,1.08796 -1.6639388,1.823933 -0.3733196,0.735973 -0.55997945,1.583941 -0.55997945,2.543906 0,0.735973 0.14399475,1.423948 0.43198415,2.063924 0.2986557,0.629311 0.7146404,1.173291 1.2479541,1.63194 0.5226475,0.45865 1.1519577,0.81597 1.8879307,1.071961 0.7466392,0.255991 1.5679423,0.383986 2.4639094,0.383986 0.5439801,0 1.0559613,-0.05333 1.5359436,-0.159994 0.4799823,-0.106663 0.9226327,-0.250657 1.3279512,-0.431984 0.3946524,-0.181327 0.7573054,-0.389319 1.0879604,-0.623977 0.330654,-0.245325 0.623976,-0.506649 0.879967,-0.783972 0.04267,0.319989 0.101331,0.629311 0.175994,0.927966 0.07466,0.28799 0.165327,0.813564 0.27199,1.02689 z M 7.7905873,21.319618 c -0.4479835,0 -0.8426357,-0.05333 -1.1839565,-0.159994 C 6.26531,21.042295 5.9826537,20.892967 5.7586619,20.71164 5.5240039,20.508981 5.3480104,20.26899 5.2306813,19.991667 5.1133523,19.703678 5.0546878,19.394356 5.0546878,19.063701 c 0,-0.405319 0.074664,-0.778638 0.2239918,-1.119959 0.1599941,-0.341321 0.3946521,-0.634643 0.7039741,-0.879968 0.3413208,-0.266657 0.7839712,-0.469316 1.3279512,-0.607977 0.54398,-0.138662 1.1999559,-0.207993 1.9679277,-0.207993 h 2.3679134 v 3.087887 c -0.138662,0.245324 -0.330655,0.490648 -0.575979,0.735973 -0.234658,0.234658 -0.517314,0.44265 -0.847969,0.623977 -0.3306546,0.191993 -0.6986411,0.346654 -1.1039595,0.463983 -0.4053185,0.106663 -0.8479689,0.159994 -1.3279512,0.159994 z"
       style="font-style:normal;font-variant:normal;font-weight:bold;font-stretch:normal;font-size:32.76679611px;font-family:'Roboto Mono';-inkscape-font-specification:'Roboto Mono Bold';fill:#000000;fill-opacity:1;stroke-width:0.26008642"
       id="path815"
       inkscape:connector-curvature="0"
       sodipodi:nodetypes="cccsscccscsccccccscccscsccsscccsscccccscccscccscccccs" />
  </g>

 </g><g transform="translate(105.3, 248.6) rotate(20) "> <g
     aria-label="c"
     transform="scale(0.98202548,1.0183035)"
     style="font-style:normal;font-weight:normal;font-size:10.41426468px;line-height:1.25;font-family:sans-serif;letter-spacing:0px;word-spacing:0px;fill:#000000;fill-opacity:1;stroke:none;stroke-width:0.26035658"
     id="text826">
    <path
       d="m 8.9944199,21.317659 q -1.1371381,0 -1.8898916,-0.448449 Q 6.3677909,20.404745 5.9353581,19.651991 5.4708932,18.899238 5.2947168,17.938276 5.1185405,16.961298 5.1185405,15.920256 v -0.512513 q 0,-1.025026 0.1761763,-1.985987 0.1921924,-0.976978 0.6406413,-1.729732 0.4484488,-0.752753 1.1851862,-1.201202 0.7367375,-0.464465 1.8578596,-0.464465 0.7687695,0 1.4094111,0.256257 0.640641,0.256256 1.105106,0.704705 0.448449,0.432433 0.688689,1.041042 0.256257,0.592593 0.240241,1.265266 h 3.907911 Q 16.345778,11.804136 15.801233,10.586918 15.272704,9.3536837 14.295726,8.4888181 13.318748,7.6239524 11.973402,7.1434715 10.628055,6.6629906 9.042468,6.6629906 q -2.0020038,0 -3.5075107,0.6886893 -1.5055069,0.6886893 -2.5145168,1.8738756 -1.025026,1.2012025 -1.537539,2.7867895 -0.51251293,1.585587 -0.51251293,3.395398 v 0.512513 q 0,1.809812 0.51251293,3.395399 0.5285291,1.585587 1.537539,2.770773 1.0090099,1.185186 2.5145168,1.873876 1.5215229,0.688689 3.5235268,0.688689 1.4734749,0 2.7867889,-0.464465 1.329331,-0.480481 2.322325,-1.313314 1.00901,-0.816818 1.585587,-1.93794 0.592593,-1.137138 0.576577,-2.450453 h -3.907911 q 0.01602,0.640641 -0.256257,1.16917 -0.272273,0.512513 -0.752753,0.880882 -0.480481,0.368369 -1.105107,0.576577 -0.6246247,0.208209 -1.3133141,0.208209 z"
       style="font-style:normal;font-variant:normal;font-weight:bold;font-stretch:normal;font-size:32.80083084px;font-family:'Roboto Mono';-inkscape-font-specification:'Roboto Mono Bold';fill:#000000;fill-opacity:1;stroke-width:0.26035658"
       id="path814" />
  </g>

 </g><g transform="translate(123.2, 254.8) rotate(10) "> <g
     aria-label="t"
     transform="scale(0.97692725,1.0236177)"
     style="font-style:normal;font-weight:normal;font-size:10.4605608px;line-height:1.25;font-family:sans-serif;letter-spacing:0px;word-spacing:0px;fill:#000000;fill-opacity:1;stroke:none;stroke-width:0.26151398"
     id="text826">
    <path
       d="M 9.215023,2.6704246 H 5.0484313 V 6.9174524 H 0.9461885 V 10.0062 h 4.1022428 v 8.23666 q 0,1.705246 0.4343551,2.911788 0.4504423,1.206542 1.2708909,1.978729 0.8043613,0.788274 1.9304672,1.15828 1.1421931,0.370006 2.5096075,0.370006 0.740012,0 1.480025,-0.08044 0.756099,-0.06435 1.44785,-0.193047 0.691751,-0.128697 1.286978,-0.321744 0.611315,-0.193047 1.061757,-0.450442 L 16.036007,20.73638 q -0.28957,0.08044 -0.723925,0.160872 -0.418268,0.08044 -0.900885,0.144785 -0.498704,0.08044 -1.04567,0.144785 -0.530878,0.04826 -1.029582,0.04826 -0.691751,0 -1.270891,-0.160872 Q 10.485914,20.91334 10.067646,20.511159 9.6654653,20.141153 9.4402441,19.513751 9.215023,18.870262 9.215023,17.905028 V 10.0062 H 15.73035 V 6.9174524 H 9.215023 Z"
       style="font-style:normal;font-variant:normal;font-weight:bold;font-stretch:normal;font-size:32.94664001px;font-family:'Roboto Mono';-inkscape-font-specification:'Roboto Mono Bold';fill:#000000;fill-opacity:1;stroke-width:0.26151398"
       id="path815" />
  </g>

 </g><g transform="translate(179, 254.3) rotate(-20) "> <g
     aria-label="C"
     transform="scale(0.94208953,1.0614702)"
     style="font-style:normal;font-weight:normal;font-size:9.9159708px;line-height:1.25;font-family:sans-serif;letter-spacing:0px;word-spacing:0px;fill:#000000;fill-opacity:1;stroke:none;stroke-width:0.2478992"
     id="text826">
    <path
       d="m 17.044022,16.451345 h -3.980174 q -0.07625,1.00648 -0.365993,1.753716 -0.289744,0.747235 -0.777735,1.235226 -0.48799,0.50324 -1.189477,0.747235 -0.701486,0.228746 -1.6012188,0.228746 -0.7167361,0 -1.2809752,-0.182996 Q 7.2994595,20.050275 6.8419684,19.699532 6.4302263,19.364038 6.1099825,18.876048 5.8049884,18.388057 5.5914925,17.793319 5.3017481,17.000334 5.1645007,15.993853 5.0272534,14.987373 5.0272534,13.767396 v -3.049941 q 0,-0.9454816 0.091498,-1.7994652 Q 5.2102498,8.0640063 5.4237457,7.3472701 5.667741,6.4475375 6.0947328,5.7613007 6.5217245,5.0598142 7.1317128,4.6633219 7.5282051,4.3735775 8.0314454,4.2210804 q 0.51849,-0.152497 1.1132286,-0.152497 0.991231,0 1.692717,0.2744947 0.716736,0.2744947 1.189477,0.8082344 0.472741,0.5337397 0.716737,1.3114747 0.259245,0.7624853 0.335493,1.7537162 h 3.980173 Q 16.891525,6.5085363 16.312036,5.1360628 15.732547,3.7635892 14.741316,2.8181075 13.750085,1.857376 12.347112,1.338886 10.944139,0.820396 9.144674,0.820396 q -1.2657256,0 -2.3484547,0.3354935 Q 5.7134901,1.4761334 4.8290072,2.0861216 3.8377763,2.7723584 3.075291,3.7483395 2.3280554,4.7243207 1.8553145,5.9595469 1.4283228,7.0117766 1.2148269,8.2317531 1.001331,9.4364798 1.001331,10.747955 v 3.019441 q 0,1.387724 0.2287456,2.653449 0.2287456,1.265726 0.6709871,2.333205 0.4422414,1.082729 1.0979788,1.982462 0.670987,0.884483 1.5249706,1.52497 0.9149823,0.670988 2.07396,1.03698 1.1589776,0.365993 2.5314511,0.365993 1.7079668,0 3.1109398,-0.50324 1.402973,-0.51849 2.424703,-1.463972 1.021731,-0.945481 1.631719,-2.272206 0.609988,-1.326724 0.747236,-2.973692 z"
       style="font-style:normal;font-variant:normal;font-weight:bold;font-stretch:normal;font-size:31.23139763px;font-family:'Roboto Mono';-inkscape-font-specification:'Roboto Mono Bold';fill:#000000;fill-opacity:1;stroke-width:0.2478992"
       id="path815" />
  </g>

 </g><g transform="translate(196.8, 247.8) rotate(-30) "> <g
     aria-label="o"
     transform="scale(0.95677922,1.0451732)"
     style="font-style:normal;font-weight:normal;font-size:10.15703297px;line-height:1.25;font-family:sans-serif;letter-spacing:0px;word-spacing:0px;fill:#000000;fill-opacity:1;stroke:none;stroke-width:0.25392577"
     id="text826">
    <path
       d="m 0.97603546,15.098557 v 0.328029 q 0,1.858831 0.53109474,3.436495 0.5310948,1.562044 1.5620434,2.717956 0.9997077,1.155912 2.4680285,1.81197 1.4839412,0.640438 3.3740137,0.640438 1.8744522,0 3.3427732,-0.640438 1.46832,-0.656058 2.483649,-1.81197 0.999707,-1.155912 1.530802,-2.717956 0.531095,-1.577664 0.531095,-3.436495 v -0.328029 q 0,-1.843211 -0.531095,-3.405255 Q 15.737345,10.115638 14.737638,8.9597263 13.706689,7.8038142 12.238368,7.147756 10.770047,6.4916978 8.8799749,6.4916978 q -1.874452,0 -3.3427728,0.6560582 Q 4.0688813,7.8038142 3.0691736,8.9597263 2.038225,10.115638 1.5071302,11.693302 0.97603546,13.255346 0.97603546,15.098557 Z m 4.03007194,0.328029 v -0.328029 q 0,-1.07781 0.218686,-2.030657 0.2343065,-0.968467 0.7029196,-1.702627 0.468613,-0.749781 1.2027734,-1.171532 0.7341603,-0.4217522 1.7494885,-0.4217522 1.0309487,0 1.7651091,0.4217522 0.73416,0.421751 1.202773,1.171532 0.452993,0.73416 0.671679,1.702627 0.234306,0.952847 0.234306,2.030657 v 0.328029 q 0,1.109051 -0.234306,2.077518 -0.218686,0.968466 -0.671679,1.687006 -0.468613,0.749781 -1.202773,1.171533 -0.7341604,0.421752 -1.7338682,0.421752 -1.0309486,0 -1.7807294,-0.421752 Q 6.396326,19.940891 5.927713,19.19111 5.4590999,18.47257 5.2247934,17.504104 5.0061074,16.535637 5.0061074,15.426586 Z"
       style="font-style:normal;font-variant:normal;font-weight:bold;font-stretch:normal;font-size:31.99064827px;font-family:'Roboto Mono';-inkscape-font-specification:'Roboto Mono Bold';fill:#000000;fill-opacity:1;stroke-width:0.25392577"
       id="path815" />
  </g>

 </g><g transform="translate(213, 238) rotate(-40) "> <g
     aria-label="n"
     transform="scale(0.97991698,1.0204946)"
     style="font-style:normal;font-weight:normal;font-size:10.57997036px;line-height:1.25;font-family:sans-serif;letter-spacing:0px;word-spacing:0px;fill:#000000;fill-opacity:1;stroke:none;stroke-width:0.26449922"
     id="text826">
    <path
       d="M 0.95522922,24.579184 H 5.1693837 V 12.721869 c 0.1627087,-0.271181 0.3471118,-0.515244 0.5532094,-0.732189 0.2060977,-0.227792 0.4338898,-0.423043 0.6833764,-0.585751 0.3037229,-0.206098 0.6454111,-0.363383 1.0250646,-0.471855 0.3905008,-0.108473 0.818967,-0.162709 1.2853985,-0.162709 0.5423622,0 1.0250647,0.05424 1.4481074,0.162709 0.433889,0.108472 0.802696,0.303723 1.106419,0.585751 0.303723,0.271181 0.536938,0.645411 0.699647,1.12269 0.162709,0.466431 0.244063,1.057606 0.244063,1.773524 v 10.165145 h 4.197884 V 13.677703 c 0,-1.258281 -0.146438,-2.332158 -0.439314,-3.221632 C 15.680364,9.5665972 15.268168,8.8398319 14.736653,8.2757752 14.194291,7.7117185 13.54888,7.2995233 12.80042,7.0391894 12.062807,6.7788555 11.249264,6.6486886 10.35979,6.6486886 c -0.6942235,0 -1.3504818,0.097625 -1.9687747,0.2928756 C 7.7727224,7.1368146 7.203242,7.4188429 6.6825743,7.7876492 6.3680042,8.0045941 6.0697049,8.2540808 5.7876766,8.5361091 5.5164955,8.8072902 5.2615852,9.1110131 5.0229459,9.4472776 L 4.762612,6.9741059 H 0.95522922 Z"
       style="font-style:normal;font-variant:normal;font-weight:bold;font-stretch:normal;font-size:33.32273483px;font-family:'Roboto Mono';-inkscape-font-specification:'Roboto Mono Bold';fill:#000000;fill-opacity:1;stroke-width:0.26449922"
       id="path818"
       inkscape:connector-curvature="0"
       sodipodi:nodetypes="ccccccscccsccssccsscscccc" />
  </g>

 </g><g transform="translate(227.3, 226.2) rotate(-50) "> <g
     aria-label="t"
     transform="scale(0.97692725,1.0236177)"
     style="font-style:normal;font-weight:normal;font-size:10.4605608px;line-height:1.25;font-family:sans-serif;letter-spacing:0px;word-spacing:0px;fill:#000000;fill-opacity:1;stroke:none;stroke-width:0.26151398"
     id="text826">
    <path
       d="M 9.215023,2.6704246 H 5.0484313 V 6.9174524 H 0.9461885 V 10.0062 h 4.1022428 v 8.23666 q 0,1.705246 0.4343551,2.911788 0.4504423,1.206542 1.2708909,1.978729 0.8043613,0.788274 1.9304672,1.15828 1.1421931,0.370006 2.5096075,0.370006 0.740012,0 1.480025,-0.08044 0.756099,-0.06435 1.44785,-0.193047 0.691751,-0.128697 1.286978,-0.321744 0.611315,-0.193047 1.061757,-0.450442 L 16.036007,20.73638 q -0.28957,0.08044 -0.723925,0.160872 -0.418268,0.08044 -0.900885,0.144785 -0.498704,0.08044 -1.04567,0.144785 -0.530878,0.04826 -1.029582,0.04826 -0.691751,0 -1.270891,-0.160872 Q 10.485914,20.91334 10.067646,20.511159 9.6654653,20.141153 9.4402441,19.513751 9.215023,18.870262 9.215023,17.905028 V 10.0062 H 15.73035 V 6.9174524 H 9.215023 Z"
       style="font-style:normal;font-variant:normal;font-weight:bold;font-stretch:normal;font-size:32.94664001px;font-family:'Roboto Mono';-inkscape-font-specification:'Roboto Mono Bold';fill:#000000;fill-opacity:1;stroke-width:0.26151398"
       id="path815" />
  </g>

 </g><g transform="translate(238.8, 211.5) rotate(-60) "> <g
     aria-label="a"
     transform="scale(0.97748117,1.0230376)"
     style="font-style:normal;font-weight:normal;font-size:10.40345955px;line-height:1.25;font-family:sans-serif;letter-spacing:0px;word-spacing:0px;fill:#000000;fill-opacity:1;stroke:none;stroke-width:0.26008642"
     id="text826">
    <path
       d="m 12.238424,24.538427 h 4.223845 c 0.02231,-0.754051 -0.348504,-1.517808 -0.511982,-2.130849 -0.106663,-0.618644 -0.159994,-1.354617 -0.159994,-2.207919 v -7.551722 c 0,-1.00263 -0.18666,-1.877265 -0.559979,-2.623904 C 14.856994,9.2667275 14.350346,8.6374172 13.71037,8.1361023 13.049061,7.6347874 12.275756,7.2614677 11.390455,7.0161434 10.505154,6.7601528 9.5451896,6.6321575 8.5105608,6.6321575 c -1.1412914,0 -2.1599206,0.1493279 -3.0558877,0.4479836 C 4.5693723,7.3681305 3.8173999,7.7627827 3.198756,8.2640976 2.5801121,8.7654125 2.1054628,9.3413914 1.7748083,9.9920341 1.45482,10.632011 1.2948259,11.309319 1.2948259,12.023959 h 4.1438478 c 0,-0.319988 0.053331,-0.61331 0.1599941,-0.879967 0.1066627,-0.277323 0.27199,-0.511981 0.4959818,-0.703974 0.234658,-0.213326 0.5333137,-0.378653 0.8959671,-0.4959821 0.3733196,-0.1173291 0.8053037,-0.1759936 1.2959523,-0.1759936 0.5546463,0 1.0399619,0.069331 1.4559466,0.2079924 0.4266514,0.1386613 0.7839714,0.3359873 1.0719604,0.5919783 0.277323,0.245324 0.485316,0.538647 0.623977,0.879968 0.138662,0.341321 0.207993,0.73064 0.207993,1.167957 v 1.08796 H 9.0065426 c -1.2586204,0 -2.3839124,0.117329 -3.375876,0.351987 -0.9812973,0.223991 -1.8079336,0.559979 -2.4799089,1.007963 -0.7359729,0.479982 -1.2906192,1.08796 -1.6639388,1.823933 -0.3733196,0.735973 -0.55997945,1.583941 -0.55997945,2.543906 0,0.735973 0.14399475,1.423948 0.43198415,2.063924 0.2986557,0.629311 0.7146404,1.173291 1.2479541,1.63194 0.5226475,0.45865 1.1519577,0.81597 1.8879307,1.071961 0.7466392,0.255991 1.5679423,0.383986 2.4639094,0.383986 0.5439801,0 1.0559613,-0.05333 1.5359436,-0.159994 0.4799823,-0.106663 0.9226327,-0.250657 1.3279512,-0.431984 0.3946524,-0.181327 0.7573054,-0.389319 1.0879604,-0.623977 0.330654,-0.245325 0.623976,-0.506649 0.879967,-0.783972 0.04267,0.319989 0.101331,0.629311 0.175994,0.927966 0.07466,0.28799 0.165327,0.813564 0.27199,1.02689 z M 7.7905873,21.319618 c -0.4479835,0 -0.8426357,-0.05333 -1.1839565,-0.159994 C 6.26531,21.042295 5.9826537,20.892967 5.7586619,20.71164 5.5240039,20.508981 5.3480104,20.26899 5.2306813,19.991667 5.1133523,19.703678 5.0546878,19.394356 5.0546878,19.063701 c 0,-0.405319 0.074664,-0.778638 0.2239918,-1.119959 0.1599941,-0.341321 0.3946521,-0.634643 0.7039741,-0.879968 0.3413208,-0.266657 0.7839712,-0.469316 1.3279512,-0.607977 0.54398,-0.138662 1.1999559,-0.207993 1.9679277,-0.207993 h 2.3679134 v 3.087887 c -0.138662,0.245324 -0.330655,0.490648 -0.575979,0.735973 -0.234658,0.234658 -0.517314,0.44265 -0.847969,0.623977 -0.3306546,0.191993 -0.6986411,0.346654 -1.1039595,0.463983 -0.4053185,0.106663 -0.8479689,0.159994 -1.3279512,0.159994 z"
       style="font-style:normal;font-variant:normal;font-weight:bold;font-stretch:normal;font-size:32.76679611px;font-family:'Roboto Mono';-inkscape-font-specification:'Roboto Mono Bold';fill:#000000;fill-opacity:1;stroke-width:0.26008642"
       id="path815"
       inkscape:connector-curvature="0"
       sodipodi:nodetypes="cccsscccscsccccccscccscsccsscccsscccccscccscccscccccs" />
  </g>

 </g><g transform="translate(248, 195.1) rotate(-70) "> <g
     aria-label="c"
     transform="scale(0.98202548,1.0183035)"
     style="font-style:normal;font-weight:normal;font-size:10.41426468px;line-height:1.25;font-family:sans-serif;letter-spacing:0px;word-spacing:0px;fill:#000000;fill-opacity:1;stroke:none;stroke-width:0.26035658"
     id="text826">
    <path
       d="m 8.9944199,21.317659 q -1.1371381,0 -1.8898916,-0.448449 Q 6.3677909,20.404745 5.9353581,19.651991 5.4708932,18.899238 5.2947168,17.938276 5.1185405,16.961298 5.1185405,15.920256 v -0.512513 q 0,-1.025026 0.1761763,-1.985987 0.1921924,-0.976978 0.6406413,-1.729732 0.4484488,-0.752753 1.1851862,-1.201202 0.7367375,-0.464465 1.8578596,-0.464465 0.7687695,0 1.4094111,0.256257 0.640641,0.256256 1.105106,0.704705 0.448449,0.432433 0.688689,1.041042 0.256257,0.592593 0.240241,1.265266 h 3.907911 Q 16.345778,11.804136 15.801233,10.586918 15.272704,9.3536837 14.295726,8.4888181 13.318748,7.6239524 11.973402,7.1434715 10.628055,6.6629906 9.042468,6.6629906 q -2.0020038,0 -3.5075107,0.6886893 -1.5055069,0.6886893 -2.5145168,1.8738756 -1.025026,1.2012025 -1.537539,2.7867895 -0.51251293,1.585587 -0.51251293,3.395398 v 0.512513 q 0,1.809812 0.51251293,3.395399 0.5285291,1.585587 1.537539,2.770773 1.0090099,1.185186 2.5145168,1.873876 1.5215229,0.688689 3.5235268,0.688689 1.4734749,0 2.7867889,-0.464465 1.329331,-0.480481 2.322325,-1.313314 1.00901,-0.816818 1.585587,-1.93794 0.592593,-1.137138 0.576577,-2.450453 h -3.907911 q 0.01602,0.640641 -0.256257,1.16917 -0.272273,0.512513 -0.752753,0.880882 -0.480481,0.368369 -1.105107,0.576577 -0.6246247,0.208209 -1.3133141,0.208209 z"
       style="font-style:normal;font-variant:normal;font-weight:bold;font-stretch:normal;font-size:32.80083084px;font-family:'Roboto Mono';-inkscape-font-specification:'Roboto Mono Bold';fill:#000000;fill-opacity:1;stroke-width:0.26035658"
       id="path814" />
  </g>

 </g><g transform="translate(254.3, 178) rotate(-80) "> <g
     aria-label="t"
     transform="scale(0.97692725,1.0236177)"
     style="font-style:normal;font-weight:normal;font-size:10.4605608px;line-height:1.25;font-family:sans-serif;letter-spacing:0px;word-spacing:0px;fill:#000000;fill-opacity:1;stroke:none;stroke-width:0.26151398"
     id="text826">
    <path
       d="M 9.215023,2.6704246 H 5.0484313 V 6.9174524 H 0.9461885 V 10.0062 h 4.1022428 v 8.23666 q 0,1.705246 0.4343551,2.911788 0.4504423,1.206542 1.2708909,1.978729 0.8043613,0.788274 1.9304672,1.15828 1.1421931,0.370006 2.5096075,0.370006 0.740012,0 1.480025,-0.08044 0.756099,-0.06435 1.44785,-0.193047 0.691751,-0.128697 1.286978,-0.321744 0.611315,-0.193047 1.061757,-0.450442 L 16.036007,20.73638 q -0.28957,0.08044 -0.723925,0.160872 -0.418268,0.08044 -0.900885,0.144785 -0.498704,0.08044 -1.04567,0.144785 -0.530878,0.04826 -1.029582,0.04826 -0.691751,0 -1.270891,-0.160872 Q 10.485914,20.91334 10.067646,20.511159 9.6654653,20.141153 9.4402441,19.513751 9.215023,18.870262 9.215023,17.905028 V 10.0062 H 15.73035 V 6.9174524 H 9.215023 Z"
       style="font-style:normal;font-variant:normal;font-weight:bold;font-stretch:normal;font-size:32.94664001px;font-family:'Roboto Mono';-inkscape-font-specification:'Roboto Mono Bold';fill:#000000;fill-opacity:1;stroke-width:0.26151398"
       id="path815" />
  </g>

 </g> 
  <g transform="translate(139.6, 138) scale(1.2, 1) "> <g
     id="g817">
 <path 
 d="M21.883 12l-7.527 6.235.644.765 9-7.521-9-7.479-.645.764 7.529 6.236h-21.884v1h21.883z"
       style="fill:#000000;fill-opacity:1;"

 />
    <!-- <path
       sodipodi:nodetypes="ccccccccccccc"
       inkscape:connector-curvature="0"
       id="rect823"
       d="M 1.03125,1.59375 1.03516,24 15.980473,24.04297 V 1.59375 Z M 4.0478309,3.5 H 14.199219 V 20.636605 Z M 2.8164062,4.7001747 12.837011,22.056641 H 2.8164062 Z"
       style="opacity:1;fill:#000000;fill-opacity:1;stroke:none;stroke-width:1.40727806;stroke-linecap:butt;stroke-linejoin:miter;stroke-miterlimit:4;stroke-dasharray:none;stroke-dashoffset:0;stroke-opacity:1;paint-order:fill markers stroke" /> -->
  </g>

 </g>
 <!--
 <g transform="translate(139.6, 138) scale(1.2, 1) "> <g
     id="g817">
    <path
       sodipodi:nodetypes="ccccccccccccc"
       inkscape:connector-curvature="0"
       id="rect823"
       d="M 1.03125,1.59375 1.03516,24 15.980473,24.04297 V 1.59375 Z M 4.0478309,3.5 H 14.199219 V 20.636605 Z M 2.8164062,4.7001747 12.837011,22.056641 H 2.8164062 Z"
       style="opacity:1;fill:#000000;fill-opacity:1;stroke:none;stroke-width:1.40727806;stroke-linecap:butt;stroke-linejoin:miter;stroke-miterlimit:4;stroke-dasharray:none;stroke-dashoffset:0;stroke-opacity:1;paint-order:fill markers stroke" />
  </g>

 </g>
 <g transform="translate(161.2, 138) scale(1.2, 1) "> <g
     id="g817">
    <path
       sodipodi:nodetypes="ccccccccccccc"
       inkscape:connector-curvature="0"
       id="rect823"
       d="M 1.03125,1.59375 1.03516,24 15.980473,24.04297 V 1.59375 Z M 4.0478309,3.5 H 14.199219 V 20.636605 Z M 2.8164062,4.7001747 12.837011,22.056641 H 2.8164062 Z"
       style="opacity:1;fill:#000000;fill-opacity:1;stroke:none;stroke-width:1.40727806;stroke-linecap:butt;stroke-linejoin:miter;stroke-miterlimit:4;stroke-dasharray:none;stroke-dashoffset:0;stroke-opacity:1;paint-order:fill markers stroke" />
  </g>

 </g> -->
  </svg>
