<?xml version="1.0" encoding="UTF-8" standalone="no"?>
<!-- translate-xy="150,138" -->

<svg
   xmlns:dc="http://purl.org/dc/elements/1.1/"
   xmlns:cc="http://creativecommons.org/ns#"
   xmlns:rdf="http://www.w3.org/1999/02/22-rdf-syntax-ns#"
   xmlns:svg="http://www.w3.org/2000/svg"
   xmlns="http://www.w3.org/2000/svg"
   xmlns:sodipodi="http://sodipodi.sourceforge.net/DTD/sodipodi-0.dtd"
   xmlns:inkscape="http://www.inkscape.org/namespaces/inkscape"
   width="300"
   height="300"
   viewBox="0 0 300 300"
   version="1.1"
   id="svg8"
   sodipodi:docname="misc-double-circle-logo-000000.svg"
   inkscape:version="1.0.1 (3bc2e813f5, 2020-09-07)">
  <metadata
     id="metadata14">
    <rdf:RDF>
      <cc:Work
         rdf:about="">
        <dc:format>image/svg+xml</dc:format>
        <dc:type
           rdf:resource="http://purl.org/dc/dcmitype/StillImage" />
        <dc:title />
      </cc:Work>
    </rdf:RDF>
  </metadata>
  <defs
     id="defs12" />
  <sodipodi:namedview
     pagecolor="#ffffff"
     bordercolor="#666666"
     borderopacity="1"
     objecttolerance="10"
     gridtolerance="10"
     guidetolerance="10"
     inkscape:pageopacity="0"
     inkscape:pageshadow="2"
     inkscape:window-width="1366"
     inkscape:window-height="705"
     id="namedview10"
     showgrid="false"
     inkscape:zoom="1.5733332"
     inkscape:cx="185.3079"
     inkscape:cy="166.2738"
     inkscape:window-x="-8"
     inkscape:window-y="-8"
     inkscape:window-maximized="1"
     inkscape:current-layer="svg8"
     inkscape:showpageshadow="false"
     inkscape:document-rotation="0" />
  <!-- <circle
     style="fill:none;fill-opacity:1;stroke:#FFFFFF;stroke-width:2.5;stroke-miterlimit:4;stroke-dasharray:none;stroke-opacity:1"
     id="circle9"
     cy="150"
     cx="150"
     r="101.75" />
  <circle
     cx="150"
     cy="150"
     id="circle10"
     style="fill:none;fill-opacity:1;stroke:#FFFFFF;stroke-width:2.50883;stroke-miterlimit:4;stroke-dasharray:none;stroke-opacity:1"
     r="140.74559" /> -->
<g transform="translate(29.5, 90.3) rotate(-60) "> <g
     aria-label="S"
     transform="scale(0.94266038,1.0608274)"
     style="font-style:normal;font-weight:normal;font-size:9.9470911px;line-height:1.25;font-family:sans-serif;letter-spacing:0px;word-spacing:0px;fill:#FFFFFF;fill-opacity:1;stroke:none;stroke-width:0.24867721"
     id="text826">
    <path
       d="m 13.117123,17.589656 q 0,0.657795 -0.275356,1.19321 -0.275357,0.535415 -0.764879,0.902556 -0.504819,0.367142 -1.19321,0.56601 -0.68839,0.198869 -1.545054,0.198869 -0.9790442,0 -1.8051127,-0.229464 Q 6.7227403,19.991374 6.1261353,19.517149 5.5295302,19.027627 5.1776862,18.293344 4.8411397,17.559061 4.7952471,16.549422 H 0.84847512 q 0.0152976,1.667434 0.65779528,2.937132 0.6577954,1.254401 1.7745177,2.187552 1.1932101,0.963747 2.7994545,1.468566 1.6062444,0.50482 3.2583814,0.50482 1.621542,0 3.028918,-0.397737 1.422674,-0.397736 2.462908,-1.177912 1.055532,-0.780176 1.652137,-1.912196 0.611903,-1.13202 0.611903,-2.600586 0,-1.667435 -0.749581,-2.921835 -0.749581,-1.269698 -2.003981,-2.20285 Q 13.438372,11.776581 12.352244,11.302357 11.281415,10.828132 10.103502,10.491586 9.1091606,10.216229 8.2524969,9.8949805 7.4111308,9.558434 6.7839306,9.1301022 6.1567304,8.7323655 5.8048864,8.1969507 5.4683399,7.6462383 5.4683399,6.9425503 q 0,-0.6577953 0.2600587,-1.1932101 Q 5.9884572,5.1986278 6.4779793,4.8008911 6.9675014,4.418452 7.6558918,4.2042861 8.3442823,3.9901202 9.1856484,3.9901202 q 0.9484486,0 1.6674346,0.2753561 0.718986,0.2600587 1.223805,0.7342832 0.474225,0.4742245 0.734283,1.1320199 0.275357,0.6577953 0.321249,1.4532687 h 3.916177 q 0,-1.4991614 -0.596605,-2.7535618 Q 15.870685,3.5770859 14.83045,2.6745295 13.790216,1.7719732 12.352244,1.2824511 10.929571,0.77763139 9.2468386,0.77763139 q -1.6062443,0 -3.0136204,0.42833181 Q 4.8258422,1.6342951 3.7856077,2.445066 2.7300757,3.2405395 2.1181731,4.3878569 1.521568,5.5351743 1.521568,6.9425503 q 0,1.269698 0.4895221,2.32523 0.4895221,1.0402347 1.407376,1.8816007 0.9025564,0.841366 2.2640398,1.529756 1.3614833,0.673093 3.0748106,1.147318 1.1167223,0.305951 1.9274935,0.673093 0.826068,0.367141 1.376781,0.810771 0.535415,0.474224 0.795473,1.040234 0.260059,0.550713 0.260059,1.239103 z"
       style="font-style:normal;font-variant:normal;font-weight:bold;font-stretch:normal;font-size:31.32941437px;font-family:'Roboto Mono';-inkscape-font-specification:'Roboto Mono Bold';fill:#FFFFFF;fill-opacity:1;stroke-width:0.24867721"
       id="path815" />
  </g>

 </g><g transform="translate(41.6, 70.3) rotate(-50) "> <g
     aria-label="e"
     transform="scale(0.95916857,1.0425696)"
     style="font-style:normal;font-weight:normal;font-size:10.20241356px;line-height:1.25;font-family:sans-serif;letter-spacing:0px;word-spacing:0px;fill:#FFFFFF;fill-opacity:1;stroke:none;stroke-width:0.25506032"
     id="text826">
    <path
       d="m 9.5030338,24.112341 q 2.4633652,0 4.2363612,-0.957104 1.788686,-0.972794 2.620268,-2.180941 l -2.0868,-2.149561 q -0.768822,0.988484 -1.976969,1.506261 -1.208147,0.517778 -2.5418166,0.517778 -0.972794,0 -1.7886858,-0.313805 Q 7.1651901,20.221165 6.537581,19.656317 5.9413524,19.107159 5.5804772,18.416789 5.2352923,17.726419 5.0313193,16.659483 v -0.06276 H 16.689157 v -1.725925 q 0,-1.851447 -0.502087,-3.389089 Q 15.684983,9.9283764 14.712189,8.8300606 13.723705,7.7317448 12.295894,7.1198259 10.883774,6.5079071 9.0480172,6.5079071 q -1.7102346,0 -3.2008061,0.6432993 -1.4748813,0.627609 -2.5731971,1.7729956 -1.0983158,1.161077 -1.7259249,2.77717 -0.61191879,1.600403 -0.61191879,3.577372 v 0.627609 q 0,1.725924 0.61191879,3.232186 0.6119188,1.490572 1.7416151,2.588887 1.1296963,1.114007 2.6987189,1.757306 1.5847129,0.627609 3.5146107,0.627609 z M 9.0166368,9.8028546 q 0.8943428,0 1.5533322,0.2981144 0.67468,0.282424 1.145387,0.768821 0.455016,0.486397 0.70606,1.161077 0.266734,0.674679 0.266734,1.38074 v 0.313804 H 5.1254607 Q 5.2823629,12.815378 5.6118577,12.093628 5.9570427,11.371877 6.4591299,10.8541 6.9455269,10.336322 7.5888262,10.069588 8.2478157,9.8028546 9.0166368,9.8028546 Z"
       style="font-style:normal;font-variant:normal;font-weight:bold;font-stretch:normal;font-size:32.13358307px;font-family:'Roboto Mono';-inkscape-font-specification:'Roboto Mono Bold';fill:#FFFFFF;fill-opacity:1;stroke-width:0.25506032"
       id="path815" />
  </g>

 </g><g transform="translate(57.3, 52.8) rotate(-40) "> <g
     aria-label="e"
     transform="scale(0.95916857,1.0425696)"
     style="font-style:normal;font-weight:normal;font-size:10.20241356px;line-height:1.25;font-family:sans-serif;letter-spacing:0px;word-spacing:0px;fill:#FFFFFF;fill-opacity:1;stroke:none;stroke-width:0.25506032"
     id="text826">
    <path
       d="m 9.5030338,24.112341 q 2.4633652,0 4.2363612,-0.957104 1.788686,-0.972794 2.620268,-2.180941 l -2.0868,-2.149561 q -0.768822,0.988484 -1.976969,1.506261 -1.208147,0.517778 -2.5418166,0.517778 -0.972794,0 -1.7886858,-0.313805 Q 7.1651901,20.221165 6.537581,19.656317 5.9413524,19.107159 5.5804772,18.416789 5.2352923,17.726419 5.0313193,16.659483 v -0.06276 H 16.689157 v -1.725925 q 0,-1.851447 -0.502087,-3.389089 Q 15.684983,9.9283764 14.712189,8.8300606 13.723705,7.7317448 12.295894,7.1198259 10.883774,6.5079071 9.0480172,6.5079071 q -1.7102346,0 -3.2008061,0.6432993 -1.4748813,0.627609 -2.5731971,1.7729956 -1.0983158,1.161077 -1.7259249,2.77717 -0.61191879,1.600403 -0.61191879,3.577372 v 0.627609 q 0,1.725924 0.61191879,3.232186 0.6119188,1.490572 1.7416151,2.588887 1.1296963,1.114007 2.6987189,1.757306 1.5847129,0.627609 3.5146107,0.627609 z M 9.0166368,9.8028546 q 0.8943428,0 1.5533322,0.2981144 0.67468,0.282424 1.145387,0.768821 0.455016,0.486397 0.70606,1.161077 0.266734,0.674679 0.266734,1.38074 v 0.313804 H 5.1254607 Q 5.2823629,12.815378 5.6118577,12.093628 5.9570427,11.371877 6.4591299,10.8541 6.9455269,10.336322 7.5888262,10.069588 8.2478157,9.8028546 9.0166368,9.8028546 Z"
       style="font-style:normal;font-variant:normal;font-weight:bold;font-stretch:normal;font-size:32.13358307px;font-family:'Roboto Mono';-inkscape-font-specification:'Roboto Mono Bold';fill:#FFFFFF;fill-opacity:1;stroke-width:0.25506032"
       id="path815" />
  </g>

 </g><g transform="translate(96.3, 27) rotate(-20) "> <g
     aria-label="m"
     transform="matrix(0.97182375,0,0,1.0752926,-0.35122731,0)"
     style="font-style:normal;font-weight:normal;font-size:10.04080486px;line-height:1.25;font-family:sans-serif;letter-spacing:0px;word-spacing:0px;fill:#FFFFFF;fill-opacity:1;stroke:none;stroke-width:0.25102007"
     id="text826">
    <path
       d="M 4.3690063,6.6186968 H 0.92550993 V 23.326603 H 4.713814 V 11.039424 c 0,-0.83153 0.4883637,-1.0840736 1.3074529,-1.0654762 0.1955947,0 0.3757478,0.025736 0.5404591,0.077209 0.1647113,0.05147 0.2445217,0.138975 0.3680551,0.262508 0.1132391,0.123534 0.200742,0.29854 0.2625087,0.525018 0.061767,0.216184 0.09265,0.48384 0.09265,0.802968 V 23.326604 H 10.980594 V 10.957811 10.710744 10.556327 c 0.04118,-0.144122 0.0978,-0.272803 0.169858,-0.386042 0.08236,-0.113239 0.180154,-0.2161839 0.293393,-0.3088338 0.123533,-0.082356 0.198196,-0.1492696 0.352613,-0.2007419 0.154417,-0.051473 0.329423,-0.077209 0.525018,-0.077209 0.195595,0 0.375748,0.025736 0.540459,0.077209 0.164711,0.051472 0.18021,0.1389749 0.303743,0.2625086 0.123533,0.1338281 0.221331,0.3139811 0.293392,0.5404591 0.07206,0.216183 0.10639,0.483843 0.108092,0.802968 v 12.059958 h 3.788304 V 11.282086 c 0,-0.895618 -0.09265,-1.6574074 -0.277951,-2.2853693 C 16.90251,8.3584602 16.650296,7.8385901 16.320873,7.4371062 15.99145,7.0459168 15.605408,6.7628192 15.162746,6.5878134 14.720084,6.4025131 14.241392,6.309863 13.726669,6.309863 c -0.411778,0 -0.787526,0.051472 -1.127243,0.1544169 -0.339717,0.1029446 -0.648551,0.247067 -0.926501,0.4323672 C 11.456741,7.0407696 11.255999,7.2157754 11.070699,7.4216645 10.885398,7.6172592 10.720687,7.8385901 10.576565,8.0856571 10.483915,7.8282956 10.370676,7.6018175 10.236848,7.4062228 10.10302,7.2003337 9.9434558,7.0253279 9.7581553,6.8812055 9.5213828,6.6856108 9.2434324,6.5414883 8.9243042,6.4488382 8.605176,6.3561881 8.24487,6.309863 7.8433861,6.309863 7.0507128,6.309863 6.3712785,6.5106049 5.8050833,6.9120888 5.2491825,7.3135727 4.811668,7.859179 4.4925398,8.5489077 Z"
       style="font-style:normal;font-variant:normal;font-weight:bold;font-stretch:normal;font-size:31.62457657px;font-family:'Roboto Mono';-inkscape-font-specification:'Roboto Mono Bold';fill:#FFFFFF;fill-opacity:1;stroke-width:0.25102007"
       id="path815"
       inkscape:connector-curvature="0"
       sodipodi:nodetypes="ccccsccccsccccccccscccsccscccsscccccssccc" />
  </g>

 </g><g transform="translate(118.5, 19.5) rotate(-10) "> <g
     aria-label="o"
     transform="scale(0.95677922,1.0451732)"
     style="font-style:normal;font-weight:normal;font-size:10.15703297px;line-height:1.25;font-family:sans-serif;letter-spacing:0px;word-spacing:0px;fill:#FFFFFF;fill-opacity:1;stroke:none;stroke-width:0.25392577"
     id="text826">
    <path
       d="m 0.97603546,15.098557 v 0.328029 q 0,1.858831 0.53109474,3.436495 0.5310948,1.562044 1.5620434,2.717956 0.9997077,1.155912 2.4680285,1.81197 1.4839412,0.640438 3.3740137,0.640438 1.8744522,0 3.3427732,-0.640438 1.46832,-0.656058 2.483649,-1.81197 0.999707,-1.155912 1.530802,-2.717956 0.531095,-1.577664 0.531095,-3.436495 v -0.328029 q 0,-1.843211 -0.531095,-3.405255 Q 15.737345,10.115638 14.737638,8.9597263 13.706689,7.8038142 12.238368,7.147756 10.770047,6.4916978 8.8799749,6.4916978 q -1.874452,0 -3.3427728,0.6560582 Q 4.0688813,7.8038142 3.0691736,8.9597263 2.038225,10.115638 1.5071302,11.693302 0.97603546,13.255346 0.97603546,15.098557 Z m 4.03007194,0.328029 v -0.328029 q 0,-1.07781 0.218686,-2.030657 0.2343065,-0.968467 0.7029196,-1.702627 0.468613,-0.749781 1.2027734,-1.171532 0.7341603,-0.4217522 1.7494885,-0.4217522 1.0309487,0 1.7651091,0.4217522 0.73416,0.421751 1.202773,1.171532 0.452993,0.73416 0.671679,1.702627 0.234306,0.952847 0.234306,2.030657 v 0.328029 q 0,1.109051 -0.234306,2.077518 -0.218686,0.968466 -0.671679,1.687006 -0.468613,0.749781 -1.202773,1.171533 -0.7341604,0.421752 -1.7338682,0.421752 -1.0309486,0 -1.7807294,-0.421752 Q 6.396326,19.940891 5.927713,19.19111 5.4590999,18.47257 5.2247934,17.504104 5.0061074,16.535637 5.0061074,15.426586 Z"
       style="font-style:normal;font-variant:normal;font-weight:bold;font-stretch:normal;font-size:31.99064827px;font-family:'Roboto Mono';-inkscape-font-specification:'Roboto Mono Bold';fill:#FFFFFF;fill-opacity:1;stroke-width:0.25392577"
       id="path815" />
  </g>

 </g><g transform="translate(141.5, 16.1) rotate(0) "> <g
     aria-label="r"
     transform="scale(1.0162181,0.98404076)"
     style="font-style:normal;font-weight:normal;font-size:10.97190666px;line-height:1.25;font-family:sans-serif;letter-spacing:0px;word-spacing:0px;fill:#FFFFFF;fill-opacity:1;stroke:none;stroke-width:0.2742976"
     id="text826">
    <path
       d="m 11.951208,6.8949876 q -1.872972,0 -3.4253453,0.894302 Q 6.9734894,8.6667179 5.8598303,10.202218 L 5.8260831,9.780377 5.6404733,7.23246 H 1.5739303 V 25.489719 H 5.9441985 V 14.370002 q 0.3037252,-0.79306 0.7930602,-1.383637 0.4893351,-0.60745 1.1642799,-0.995543 0.5905768,-0.37122 1.3667635,-0.55683 0.7761869,-0.18561 1.7379829,-0.18561 0.877429,0 1.805478,0.118116 0.944923,0.101241 1.872972,0.320598 L 15.325932,7.3505754 Q 14.785977,7.1649656 13.874801,7.0299766 12.963625,6.8949876 11.951208,6.8949876 Z"
       style="font-style:normal;font-variant:normal;font-weight:bold;font-stretch:normal;font-size:34.5571785px;font-family:'Roboto Mono';-inkscape-font-specification:'Roboto Mono Bold';fill:#FFFFFF;fill-opacity:1;stroke-width:0.2742976"
       id="path815" />
  </g>

 </g><g transform="translate(164.8, 16.7) rotate(10) "> <g
     aria-label="e"
     transform="scale(0.95916857,1.0425696)"
     style="font-style:normal;font-weight:normal;font-size:10.20241356px;line-height:1.25;font-family:sans-serif;letter-spacing:0px;word-spacing:0px;fill:#FFFFFF;fill-opacity:1;stroke:none;stroke-width:0.25506032"
     id="text826">
    <path
       d="m 9.5030338,24.112341 q 2.4633652,0 4.2363612,-0.957104 1.788686,-0.972794 2.620268,-2.180941 l -2.0868,-2.149561 q -0.768822,0.988484 -1.976969,1.506261 -1.208147,0.517778 -2.5418166,0.517778 -0.972794,0 -1.7886858,-0.313805 Q 7.1651901,20.221165 6.537581,19.656317 5.9413524,19.107159 5.5804772,18.416789 5.2352923,17.726419 5.0313193,16.659483 v -0.06276 H 16.689157 v -1.725925 q 0,-1.851447 -0.502087,-3.389089 Q 15.684983,9.9283764 14.712189,8.8300606 13.723705,7.7317448 12.295894,7.1198259 10.883774,6.5079071 9.0480172,6.5079071 q -1.7102346,0 -3.2008061,0.6432993 -1.4748813,0.627609 -2.5731971,1.7729956 -1.0983158,1.161077 -1.7259249,2.77717 -0.61191879,1.600403 -0.61191879,3.577372 v 0.627609 q 0,1.725924 0.61191879,3.232186 0.6119188,1.490572 1.7416151,2.588887 1.1296963,1.114007 2.6987189,1.757306 1.5847129,0.627609 3.5146107,0.627609 z M 9.0166368,9.8028546 q 0.8943428,0 1.5533322,0.2981144 0.67468,0.282424 1.145387,0.768821 0.455016,0.486397 0.70606,1.161077 0.266734,0.674679 0.266734,1.38074 v 0.313804 H 5.1254607 Q 5.2823629,12.815378 5.6118577,12.093628 5.9570427,11.371877 6.4591299,10.8541 6.9455269,10.336322 7.5888262,10.069588 8.2478157,9.8028546 9.0166368,9.8028546 Z"
       style="font-style:normal;font-variant:normal;font-weight:bold;font-stretch:normal;font-size:32.13358307px;font-family:'Roboto Mono';-inkscape-font-specification:'Roboto Mono Bold';fill:#FFFFFF;fill-opacity:1;stroke-width:0.25506032"
       id="path815" />
  </g>

 </g><g transform="translate(209.7, 29.9) rotate(30) "> <g
     aria-label="w"
     transform="matrix(0.95243879,0,0,1.1089486,-0.4803343,0)"
     style="font-style:normal;font-weight:normal;font-size:9.73607159px;line-height:1.25;font-family:sans-serif;letter-spacing:0px;word-spacing:0px;fill:#FFFFFF;fill-opacity:1;stroke:none;stroke-width:0.24340172"
     id="text826">
    <path
       d="m 3.8696827,22.618652 h 3.3389878 c 0.7448338,-3.58349 1.5535301,-6.240593 2.2309829,-9.834039 0.7038366,3.593366 1.5246636,6.252607 2.3058486,9.834039 h 3.338987 L 18.109043,6.4178233 h -3.67284 C 13.910649,10.250777 13.736088,12.532151 13.188841,16.362878 12.503365,12.521104 11.935252,10.249101 11.174891,6.4178233 H 7.788192 C 7.1890428,10.254268 6.5409076,12.650059 5.8428937,16.427609 5.4441218,12.821416 5.1649248,10.217375 4.6412501,6.4178233 H 0.84512863 Z"
       style="font-style:normal;font-variant:normal;font-weight:bold;font-stretch:normal;font-size:30.66478539px;font-family:'Roboto Mono';-inkscape-font-specification:'Roboto Mono Bold';fill:#FFFFFF;fill-opacity:1;stroke-width:0.24340172"
       id="path815"
       inkscape:connector-curvature="0"
       sodipodi:nodetypes="cccccccccccccc" />
  </g>

 </g><g transform="translate(229.5, 42) rotate(40) "> <g
     aria-label="o"
     transform="scale(0.95677922,1.0451732)"
     style="font-style:normal;font-weight:normal;font-size:10.15703297px;line-height:1.25;font-family:sans-serif;letter-spacing:0px;word-spacing:0px;fill:#FFFFFF;fill-opacity:1;stroke:none;stroke-width:0.25392577"
     id="text826">
    <path
       d="m 0.97603546,15.098557 v 0.328029 q 0,1.858831 0.53109474,3.436495 0.5310948,1.562044 1.5620434,2.717956 0.9997077,1.155912 2.4680285,1.81197 1.4839412,0.640438 3.3740137,0.640438 1.8744522,0 3.3427732,-0.640438 1.46832,-0.656058 2.483649,-1.81197 0.999707,-1.155912 1.530802,-2.717956 0.531095,-1.577664 0.531095,-3.436495 v -0.328029 q 0,-1.843211 -0.531095,-3.405255 Q 15.737345,10.115638 14.737638,8.9597263 13.706689,7.8038142 12.238368,7.147756 10.770047,6.4916978 8.8799749,6.4916978 q -1.874452,0 -3.3427728,0.6560582 Q 4.0688813,7.8038142 3.0691736,8.9597263 2.038225,10.115638 1.5071302,11.693302 0.97603546,13.255346 0.97603546,15.098557 Z m 4.03007194,0.328029 v -0.328029 q 0,-1.07781 0.218686,-2.030657 0.2343065,-0.968467 0.7029196,-1.702627 0.468613,-0.749781 1.2027734,-1.171532 0.7341603,-0.4217522 1.7494885,-0.4217522 1.0309487,0 1.7651091,0.4217522 0.73416,0.421751 1.202773,1.171532 0.452993,0.73416 0.671679,1.702627 0.234306,0.952847 0.234306,2.030657 v 0.328029 q 0,1.109051 -0.234306,2.077518 -0.218686,0.968466 -0.671679,1.687006 -0.468613,0.749781 -1.202773,1.171533 -0.7341604,0.421752 -1.7338682,0.421752 -1.0309486,0 -1.7807294,-0.421752 Q 6.396326,19.940891 5.927713,19.19111 5.4590999,18.47257 5.2247934,17.504104 5.0061074,16.535637 5.0061074,15.426586 Z"
       style="font-style:normal;font-variant:normal;font-weight:bold;font-stretch:normal;font-size:31.99064827px;font-family:'Roboto Mono';-inkscape-font-specification:'Roboto Mono Bold';fill:#FFFFFF;fill-opacity:1;stroke-width:0.25392577"
       id="path815" />
  </g>

 </g><g transform="translate(247.2, 57.4) rotate(50) "> <g
     aria-label="r"
     transform="scale(1.0162181,0.98404076)"
     style="font-style:normal;font-weight:normal;font-size:10.97190666px;line-height:1.25;font-family:sans-serif;letter-spacing:0px;word-spacing:0px;fill:#FFFFFF;fill-opacity:1;stroke:none;stroke-width:0.2742976"
     id="text826">
    <path
       d="m 11.951208,6.8949876 q -1.872972,0 -3.4253453,0.894302 Q 6.9734894,8.6667179 5.8598303,10.202218 L 5.8260831,9.780377 5.6404733,7.23246 H 1.5739303 V 25.489719 H 5.9441985 V 14.370002 q 0.3037252,-0.79306 0.7930602,-1.383637 0.4893351,-0.60745 1.1642799,-0.995543 0.5905768,-0.37122 1.3667635,-0.55683 0.7761869,-0.18561 1.7379829,-0.18561 0.877429,0 1.805478,0.118116 0.944923,0.101241 1.872972,0.320598 L 15.325932,7.3505754 Q 14.785977,7.1649656 13.874801,7.0299766 12.963625,6.8949876 11.951208,6.8949876 Z"
       style="font-style:normal;font-variant:normal;font-weight:bold;font-stretch:normal;font-size:34.5571785px;font-family:'Roboto Mono';-inkscape-font-specification:'Roboto Mono Bold';fill:#FFFFFF;fill-opacity:1;stroke-width:0.2742976"
       id="path815" />
  </g>

 </g><g transform="translate(262, 75.8) rotate(60) "> <g
     aria-label="k"
     transform="matrix(0.98273284,0,0,1.034376,-0.01510923,0)"
     style="font-style:normal;font-weight:normal;font-size:9.87524796px;line-height:1.25;font-family:sans-serif;letter-spacing:0px;word-spacing:0px;fill:#FFFFFF;fill-opacity:1;stroke:none;stroke-width:0.24688113"
     id="text826">
    <path
       d="m 6.8237131,17.278458 4.9358009,6.970869 h 4.844677 L 9.4207035,14.66628 15.708154,7.8169081 H 10.984973 L 6.2617912,12.889392 4.8645801,14.453661 V 0.92197466 H 0.94631389 V 24.249327 H 4.8645801 v -5.14842 z"
       style="font-style:normal;font-variant:normal;font-weight:bold;font-stretch:normal;font-size:31.10313606px;font-family:'Roboto Mono';-inkscape-font-specification:'Roboto Mono Bold';fill:#FFFFFF;fill-opacity:1;stroke-width:0.24688113"
       id="path815"
       inkscape:connector-curvature="0" />
  </g>

 </g> <g transform="translate(52.5, 196.8) rotate(60) "> <g
     aria-label="S"
     transform="scale(0.94266038,1.0608274)"
     style="font-style:normal;font-weight:normal;font-size:9.9470911px;line-height:1.25;font-family:sans-serif;letter-spacing:0px;word-spacing:0px;fill:#FFFFFF;fill-opacity:1;stroke:none;stroke-width:0.24867721"
     id="text826">
    <path
       d="m 13.117123,17.589656 q 0,0.657795 -0.275356,1.19321 -0.275357,0.535415 -0.764879,0.902556 -0.504819,0.367142 -1.19321,0.56601 -0.68839,0.198869 -1.545054,0.198869 -0.9790442,0 -1.8051127,-0.229464 Q 6.7227403,19.991374 6.1261353,19.517149 5.5295302,19.027627 5.1776862,18.293344 4.8411397,17.559061 4.7952471,16.549422 H 0.84847512 q 0.0152976,1.667434 0.65779528,2.937132 0.6577954,1.254401 1.7745177,2.187552 1.1932101,0.963747 2.7994545,1.468566 1.6062444,0.50482 3.2583814,0.50482 1.621542,0 3.028918,-0.397737 1.422674,-0.397736 2.462908,-1.177912 1.055532,-0.780176 1.652137,-1.912196 0.611903,-1.13202 0.611903,-2.600586 0,-1.667435 -0.749581,-2.921835 -0.749581,-1.269698 -2.003981,-2.20285 Q 13.438372,11.776581 12.352244,11.302357 11.281415,10.828132 10.103502,10.491586 9.1091606,10.216229 8.2524969,9.8949805 7.4111308,9.558434 6.7839306,9.1301022 6.1567304,8.7323655 5.8048864,8.1969507 5.4683399,7.6462383 5.4683399,6.9425503 q 0,-0.6577953 0.2600587,-1.1932101 Q 5.9884572,5.1986278 6.4779793,4.8008911 6.9675014,4.418452 7.6558918,4.2042861 8.3442823,3.9901202 9.1856484,3.9901202 q 0.9484486,0 1.6674346,0.2753561 0.718986,0.2600587 1.223805,0.7342832 0.474225,0.4742245 0.734283,1.1320199 0.275357,0.6577953 0.321249,1.4532687 h 3.916177 q 0,-1.4991614 -0.596605,-2.7535618 Q 15.870685,3.5770859 14.83045,2.6745295 13.790216,1.7719732 12.352244,1.2824511 10.929571,0.77763139 9.2468386,0.77763139 q -1.6062443,0 -3.0136204,0.42833181 Q 4.8258422,1.6342951 3.7856077,2.445066 2.7300757,3.2405395 2.1181731,4.3878569 1.521568,5.5351743 1.521568,6.9425503 q 0,1.269698 0.4895221,2.32523 0.4895221,1.0402347 1.407376,1.8816007 0.9025564,0.841366 2.2640398,1.529756 1.3614833,0.673093 3.0748106,1.147318 1.1167223,0.305951 1.9274935,0.673093 0.826068,0.367141 1.376781,0.810771 0.535415,0.474224 0.795473,1.040234 0.260059,0.550713 0.260059,1.239103 z"
       style="font-style:normal;font-variant:normal;font-weight:bold;font-stretch:normal;font-size:31.32941437px;font-family:'Roboto Mono';-inkscape-font-specification:'Roboto Mono Bold';fill:#FFFFFF;fill-opacity:1;stroke-width:0.24867721"
       id="path815" />
  </g>

 </g><g transform="translate(62.2, 213) rotate(50) "> <g
     aria-label="e"
     transform="scale(0.95916857,1.0425696)"
     style="font-style:normal;font-weight:normal;font-size:10.20241356px;line-height:1.25;font-family:sans-serif;letter-spacing:0px;word-spacing:0px;fill:#FFFFFF;fill-opacity:1;stroke:none;stroke-width:0.25506032"
     id="text826">
    <path
       d="m 9.5030338,24.112341 q 2.4633652,0 4.2363612,-0.957104 1.788686,-0.972794 2.620268,-2.180941 l -2.0868,-2.149561 q -0.768822,0.988484 -1.976969,1.506261 -1.208147,0.517778 -2.5418166,0.517778 -0.972794,0 -1.7886858,-0.313805 Q 7.1651901,20.221165 6.537581,19.656317 5.9413524,19.107159 5.5804772,18.416789 5.2352923,17.726419 5.0313193,16.659483 v -0.06276 H 16.689157 v -1.725925 q 0,-1.851447 -0.502087,-3.389089 Q 15.684983,9.9283764 14.712189,8.8300606 13.723705,7.7317448 12.295894,7.1198259 10.883774,6.5079071 9.0480172,6.5079071 q -1.7102346,0 -3.2008061,0.6432993 -1.4748813,0.627609 -2.5731971,1.7729956 -1.0983158,1.161077 -1.7259249,2.77717 -0.61191879,1.600403 -0.61191879,3.577372 v 0.627609 q 0,1.725924 0.61191879,3.232186 0.6119188,1.490572 1.7416151,2.588887 1.1296963,1.114007 2.6987189,1.757306 1.5847129,0.627609 3.5146107,0.627609 z M 9.0166368,9.8028546 q 0.8943428,0 1.5533322,0.2981144 0.67468,0.282424 1.145387,0.768821 0.455016,0.486397 0.70606,1.161077 0.266734,0.674679 0.266734,1.38074 v 0.313804 H 5.1254607 Q 5.2823629,12.815378 5.6118577,12.093628 5.9570427,11.371877 6.4591299,10.8541 6.9455269,10.336322 7.5888262,10.069588 8.2478157,9.8028546 9.0166368,9.8028546 Z"
       style="font-style:normal;font-variant:normal;font-weight:bold;font-stretch:normal;font-size:32.13358307px;font-family:'Roboto Mono';-inkscape-font-specification:'Roboto Mono Bold';fill:#FFFFFF;fill-opacity:1;stroke-width:0.25506032"
       id="path815" />
  </g>

 </g><g transform="translate(74, 227.5) rotate(40) "> <g
     aria-label="e"
     transform="scale(0.95916857,1.0425696)"
     style="font-style:normal;font-weight:normal;font-size:10.20241356px;line-height:1.25;font-family:sans-serif;letter-spacing:0px;word-spacing:0px;fill:#FFFFFF;fill-opacity:1;stroke:none;stroke-width:0.25506032"
     id="text826">
    <path
       d="m 9.5030338,24.112341 q 2.4633652,0 4.2363612,-0.957104 1.788686,-0.972794 2.620268,-2.180941 l -2.0868,-2.149561 q -0.768822,0.988484 -1.976969,1.506261 -1.208147,0.517778 -2.5418166,0.517778 -0.972794,0 -1.7886858,-0.313805 Q 7.1651901,20.221165 6.537581,19.656317 5.9413524,19.107159 5.5804772,18.416789 5.2352923,17.726419 5.0313193,16.659483 v -0.06276 H 16.689157 v -1.725925 q 0,-1.851447 -0.502087,-3.389089 Q 15.684983,9.9283764 14.712189,8.8300606 13.723705,7.7317448 12.295894,7.1198259 10.883774,6.5079071 9.0480172,6.5079071 q -1.7102346,0 -3.2008061,0.6432993 -1.4748813,0.627609 -2.5731971,1.7729956 -1.0983158,1.161077 -1.7259249,2.77717 -0.61191879,1.600403 -0.61191879,3.577372 v 0.627609 q 0,1.725924 0.61191879,3.232186 0.6119188,1.490572 1.7416151,2.588887 1.1296963,1.114007 2.6987189,1.757306 1.5847129,0.627609 3.5146107,0.627609 z M 9.0166368,9.8028546 q 0.8943428,0 1.5533322,0.2981144 0.67468,0.282424 1.145387,0.768821 0.455016,0.486397 0.70606,1.161077 0.266734,0.674679 0.266734,1.38074 v 0.313804 H 5.1254607 Q 5.2823629,12.815378 5.6118577,12.093628 5.9570427,11.371877 6.4591299,10.8541 6.9455269,10.336322 7.5888262,10.069588 8.2478157,9.8028546 9.0166368,9.8028546 Z"
       style="font-style:normal;font-variant:normal;font-weight:bold;font-stretch:normal;font-size:32.13358307px;font-family:'Roboto Mono';-inkscape-font-specification:'Roboto Mono Bold';fill:#FFFFFF;fill-opacity:1;stroke-width:0.25506032"
       id="path815" />
  </g>

 </g><g transform="translate(105.3, 248.6) rotate(20) "> <g
     aria-label="m"
     transform="matrix(0.97182375,0,0,1.0752926,-0.35122731,0)"
     style="font-style:normal;font-weight:normal;font-size:10.04080486px;line-height:1.25;font-family:sans-serif;letter-spacing:0px;word-spacing:0px;fill:#FFFFFF;fill-opacity:1;stroke:none;stroke-width:0.25102007"
     id="text826">
    <path
       d="M 4.3690063,6.6186968 H 0.92550993 V 23.326603 H 4.713814 V 11.039424 c 0,-0.83153 0.4883637,-1.0840736 1.3074529,-1.0654762 0.1955947,0 0.3757478,0.025736 0.5404591,0.077209 0.1647113,0.05147 0.2445217,0.138975 0.3680551,0.262508 0.1132391,0.123534 0.200742,0.29854 0.2625087,0.525018 0.061767,0.216184 0.09265,0.48384 0.09265,0.802968 V 23.326604 H 10.980594 V 10.957811 10.710744 10.556327 c 0.04118,-0.144122 0.0978,-0.272803 0.169858,-0.386042 0.08236,-0.113239 0.180154,-0.2161839 0.293393,-0.3088338 0.123533,-0.082356 0.198196,-0.1492696 0.352613,-0.2007419 0.154417,-0.051473 0.329423,-0.077209 0.525018,-0.077209 0.195595,0 0.375748,0.025736 0.540459,0.077209 0.164711,0.051472 0.18021,0.1389749 0.303743,0.2625086 0.123533,0.1338281 0.221331,0.3139811 0.293392,0.5404591 0.07206,0.216183 0.10639,0.483843 0.108092,0.802968 v 12.059958 h 3.788304 V 11.282086 c 0,-0.895618 -0.09265,-1.6574074 -0.277951,-2.2853693 C 16.90251,8.3584602 16.650296,7.8385901 16.320873,7.4371062 15.99145,7.0459168 15.605408,6.7628192 15.162746,6.5878134 14.720084,6.4025131 14.241392,6.309863 13.726669,6.309863 c -0.411778,0 -0.787526,0.051472 -1.127243,0.1544169 -0.339717,0.1029446 -0.648551,0.247067 -0.926501,0.4323672 C 11.456741,7.0407696 11.255999,7.2157754 11.070699,7.4216645 10.885398,7.6172592 10.720687,7.8385901 10.576565,8.0856571 10.483915,7.8282956 10.370676,7.6018175 10.236848,7.4062228 10.10302,7.2003337 9.9434558,7.0253279 9.7581553,6.8812055 9.5213828,6.6856108 9.2434324,6.5414883 8.9243042,6.4488382 8.605176,6.3561881 8.24487,6.309863 7.8433861,6.309863 7.0507128,6.309863 6.3712785,6.5106049 5.8050833,6.9120888 5.2491825,7.3135727 4.811668,7.859179 4.4925398,8.5489077 Z"
       style="font-style:normal;font-variant:normal;font-weight:bold;font-stretch:normal;font-size:31.62457657px;font-family:'Roboto Mono';-inkscape-font-specification:'Roboto Mono Bold';fill:#FFFFFF;fill-opacity:1;stroke-width:0.25102007"
       id="path815"
       inkscape:connector-curvature="0"
       sodipodi:nodetypes="ccccsccccsccccccccscccsccscccsscccccssccc" />
  </g>

 </g><g transform="translate(123.2, 254.8) rotate(10) "> <g
     aria-label="o"
     transform="scale(0.95677922,1.0451732)"
     style="font-style:normal;font-weight:normal;font-size:10.15703297px;line-height:1.25;font-family:sans-serif;letter-spacing:0px;word-spacing:0px;fill:#FFFFFF;fill-opacity:1;stroke:none;stroke-width:0.25392577"
     id="text826">
    <path
       d="m 0.97603546,15.098557 v 0.328029 q 0,1.858831 0.53109474,3.436495 0.5310948,1.562044 1.5620434,2.717956 0.9997077,1.155912 2.4680285,1.81197 1.4839412,0.640438 3.3740137,0.640438 1.8744522,0 3.3427732,-0.640438 1.46832,-0.656058 2.483649,-1.81197 0.999707,-1.155912 1.530802,-2.717956 0.531095,-1.577664 0.531095,-3.436495 v -0.328029 q 0,-1.843211 -0.531095,-3.405255 Q 15.737345,10.115638 14.737638,8.9597263 13.706689,7.8038142 12.238368,7.147756 10.770047,6.4916978 8.8799749,6.4916978 q -1.874452,0 -3.3427728,0.6560582 Q 4.0688813,7.8038142 3.0691736,8.9597263 2.038225,10.115638 1.5071302,11.693302 0.97603546,13.255346 0.97603546,15.098557 Z m 4.03007194,0.328029 v -0.328029 q 0,-1.07781 0.218686,-2.030657 0.2343065,-0.968467 0.7029196,-1.702627 0.468613,-0.749781 1.2027734,-1.171532 0.7341603,-0.4217522 1.7494885,-0.4217522 1.0309487,0 1.7651091,0.4217522 0.73416,0.421751 1.202773,1.171532 0.452993,0.73416 0.671679,1.702627 0.234306,0.952847 0.234306,2.030657 v 0.328029 q 0,1.109051 -0.234306,2.077518 -0.218686,0.968466 -0.671679,1.687006 -0.468613,0.749781 -1.202773,1.171533 -0.7341604,0.421752 -1.7338682,0.421752 -1.0309486,0 -1.7807294,-0.421752 Q 6.396326,19.940891 5.927713,19.19111 5.4590999,18.47257 5.2247934,17.504104 5.0061074,16.535637 5.0061074,15.426586 Z"
       style="font-style:normal;font-variant:normal;font-weight:bold;font-stretch:normal;font-size:31.99064827px;font-family:'Roboto Mono';-inkscape-font-specification:'Roboto Mono Bold';fill:#FFFFFF;fill-opacity:1;stroke-width:0.25392577"
       id="path815" />
  </g>

 </g><g transform="translate(141.6, 258) rotate(0) "> <g
     aria-label="r"
     transform="scale(1.0162181,0.98404076)"
     style="font-style:normal;font-weight:normal;font-size:10.97190666px;line-height:1.25;font-family:sans-serif;letter-spacing:0px;word-spacing:0px;fill:#FFFFFF;fill-opacity:1;stroke:none;stroke-width:0.2742976"
     id="text826">
    <path
       d="m 11.951208,6.8949876 q -1.872972,0 -3.4253453,0.894302 Q 6.9734894,8.6667179 5.8598303,10.202218 L 5.8260831,9.780377 5.6404733,7.23246 H 1.5739303 V 25.489719 H 5.9441985 V 14.370002 q 0.3037252,-0.79306 0.7930602,-1.383637 0.4893351,-0.60745 1.1642799,-0.995543 0.5905768,-0.37122 1.3667635,-0.55683 0.7761869,-0.18561 1.7379829,-0.18561 0.877429,0 1.805478,0.118116 0.944923,0.101241 1.872972,0.320598 L 15.325932,7.3505754 Q 14.785977,7.1649656 13.874801,7.0299766 12.963625,6.8949876 11.951208,6.8949876 Z"
       style="font-style:normal;font-variant:normal;font-weight:bold;font-stretch:normal;font-size:34.5571785px;font-family:'Roboto Mono';-inkscape-font-specification:'Roboto Mono Bold';fill:#FFFFFF;fill-opacity:1;stroke-width:0.2742976"
       id="path815" />
  </g>

 </g><g transform="translate(160.4, 257.8) rotate(-10) "> <g
     aria-label="e"
     transform="scale(0.95916857,1.0425696)"
     style="font-style:normal;font-weight:normal;font-size:10.20241356px;line-height:1.25;font-family:sans-serif;letter-spacing:0px;word-spacing:0px;fill:#FFFFFF;fill-opacity:1;stroke:none;stroke-width:0.25506032"
     id="text826">
    <path
       d="m 9.5030338,24.112341 q 2.4633652,0 4.2363612,-0.957104 1.788686,-0.972794 2.620268,-2.180941 l -2.0868,-2.149561 q -0.768822,0.988484 -1.976969,1.506261 -1.208147,0.517778 -2.5418166,0.517778 -0.972794,0 -1.7886858,-0.313805 Q 7.1651901,20.221165 6.537581,19.656317 5.9413524,19.107159 5.5804772,18.416789 5.2352923,17.726419 5.0313193,16.659483 v -0.06276 H 16.689157 v -1.725925 q 0,-1.851447 -0.502087,-3.389089 Q 15.684983,9.9283764 14.712189,8.8300606 13.723705,7.7317448 12.295894,7.1198259 10.883774,6.5079071 9.0480172,6.5079071 q -1.7102346,0 -3.2008061,0.6432993 -1.4748813,0.627609 -2.5731971,1.7729956 -1.0983158,1.161077 -1.7259249,2.77717 -0.61191879,1.600403 -0.61191879,3.577372 v 0.627609 q 0,1.725924 0.61191879,3.232186 0.6119188,1.490572 1.7416151,2.588887 1.1296963,1.114007 2.6987189,1.757306 1.5847129,0.627609 3.5146107,0.627609 z M 9.0166368,9.8028546 q 0.8943428,0 1.5533322,0.2981144 0.67468,0.282424 1.145387,0.768821 0.455016,0.486397 0.70606,1.161077 0.266734,0.674679 0.266734,1.38074 v 0.313804 H 5.1254607 Q 5.2823629,12.815378 5.6118577,12.093628 5.9570427,11.371877 6.4591299,10.8541 6.9455269,10.336322 7.5888262,10.069588 8.2478157,9.8028546 9.0166368,9.8028546 Z"
       style="font-style:normal;font-variant:normal;font-weight:bold;font-stretch:normal;font-size:32.13358307px;font-family:'Roboto Mono';-inkscape-font-specification:'Roboto Mono Bold';fill:#FFFFFF;fill-opacity:1;stroke-width:0.25506032"
       id="path815" />
  </g>

 </g><g transform="translate(196.8, 247.8) rotate(-30) "> <g
     aria-label="w"
     transform="matrix(0.95243879,0,0,1.1089486,-0.4803343,0)"
     style="font-style:normal;font-weight:normal;font-size:9.73607159px;line-height:1.25;font-family:sans-serif;letter-spacing:0px;word-spacing:0px;fill:#FFFFFF;fill-opacity:1;stroke:none;stroke-width:0.24340172"
     id="text826">
    <path
       d="m 3.8696827,22.618652 h 3.3389878 c 0.7448338,-3.58349 1.5535301,-6.240593 2.2309829,-9.834039 0.7038366,3.593366 1.5246636,6.252607 2.3058486,9.834039 h 3.338987 L 18.109043,6.4178233 h -3.67284 C 13.910649,10.250777 13.736088,12.532151 13.188841,16.362878 12.503365,12.521104 11.935252,10.249101 11.174891,6.4178233 H 7.788192 C 7.1890428,10.254268 6.5409076,12.650059 5.8428937,16.427609 5.4441218,12.821416 5.1649248,10.217375 4.6412501,6.4178233 H 0.84512863 Z"
       style="font-style:normal;font-variant:normal;font-weight:bold;font-stretch:normal;font-size:30.66478539px;font-family:'Roboto Mono';-inkscape-font-specification:'Roboto Mono Bold';fill:#FFFFFF;fill-opacity:1;stroke-width:0.24340172"
       id="path815"
       inkscape:connector-curvature="0"
       sodipodi:nodetypes="cccccccccccccc" />
  </g>

 </g><g transform="translate(213, 238) rotate(-40) "> <g
     aria-label="o"
     transform="scale(0.95677922,1.0451732)"
     style="font-style:normal;font-weight:normal;font-size:10.15703297px;line-height:1.25;font-family:sans-serif;letter-spacing:0px;word-spacing:0px;fill:#FFFFFF;fill-opacity:1;stroke:none;stroke-width:0.25392577"
     id="text826">
    <path
       d="m 0.97603546,15.098557 v 0.328029 q 0,1.858831 0.53109474,3.436495 0.5310948,1.562044 1.5620434,2.717956 0.9997077,1.155912 2.4680285,1.81197 1.4839412,0.640438 3.3740137,0.640438 1.8744522,0 3.3427732,-0.640438 1.46832,-0.656058 2.483649,-1.81197 0.999707,-1.155912 1.530802,-2.717956 0.531095,-1.577664 0.531095,-3.436495 v -0.328029 q 0,-1.843211 -0.531095,-3.405255 Q 15.737345,10.115638 14.737638,8.9597263 13.706689,7.8038142 12.238368,7.147756 10.770047,6.4916978 8.8799749,6.4916978 q -1.874452,0 -3.3427728,0.6560582 Q 4.0688813,7.8038142 3.0691736,8.9597263 2.038225,10.115638 1.5071302,11.693302 0.97603546,13.255346 0.97603546,15.098557 Z m 4.03007194,0.328029 v -0.328029 q 0,-1.07781 0.218686,-2.030657 0.2343065,-0.968467 0.7029196,-1.702627 0.468613,-0.749781 1.2027734,-1.171532 0.7341603,-0.4217522 1.7494885,-0.4217522 1.0309487,0 1.7651091,0.4217522 0.73416,0.421751 1.202773,1.171532 0.452993,0.73416 0.671679,1.702627 0.234306,0.952847 0.234306,2.030657 v 0.328029 q 0,1.109051 -0.234306,2.077518 -0.218686,0.968466 -0.671679,1.687006 -0.468613,0.749781 -1.202773,1.171533 -0.7341604,0.421752 -1.7338682,0.421752 -1.0309486,0 -1.7807294,-0.421752 Q 6.396326,19.940891 5.927713,19.19111 5.4590999,18.47257 5.2247934,17.504104 5.0061074,16.535637 5.0061074,15.426586 Z"
       style="font-style:normal;font-variant:normal;font-weight:bold;font-stretch:normal;font-size:31.99064827px;font-family:'Roboto Mono';-inkscape-font-specification:'Roboto Mono Bold';fill:#FFFFFF;fill-opacity:1;stroke-width:0.25392577"
       id="path815" />
  </g>

 </g><g transform="translate(227.3, 226.2) rotate(-50) "> <g
     aria-label="r"
     transform="scale(1.0162181,0.98404076)"
     style="font-style:normal;font-weight:normal;font-size:10.97190666px;line-height:1.25;font-family:sans-serif;letter-spacing:0px;word-spacing:0px;fill:#FFFFFF;fill-opacity:1;stroke:none;stroke-width:0.2742976"
     id="text826">
    <path
       d="m 11.951208,6.8949876 q -1.872972,0 -3.4253453,0.894302 Q 6.9734894,8.6667179 5.8598303,10.202218 L 5.8260831,9.780377 5.6404733,7.23246 H 1.5739303 V 25.489719 H 5.9441985 V 14.370002 q 0.3037252,-0.79306 0.7930602,-1.383637 0.4893351,-0.60745 1.1642799,-0.995543 0.5905768,-0.37122 1.3667635,-0.55683 0.7761869,-0.18561 1.7379829,-0.18561 0.877429,0 1.805478,0.118116 0.944923,0.101241 1.872972,0.320598 L 15.325932,7.3505754 Q 14.785977,7.1649656 13.874801,7.0299766 12.963625,6.8949876 11.951208,6.8949876 Z"
       style="font-style:normal;font-variant:normal;font-weight:bold;font-stretch:normal;font-size:34.5571785px;font-family:'Roboto Mono';-inkscape-font-specification:'Roboto Mono Bold';fill:#FFFFFF;fill-opacity:1;stroke-width:0.2742976"
       id="path815" />
  </g>

 </g><g transform="translate(238.8, 211.5) rotate(-60) "> <g
     aria-label="k"
     transform="matrix(0.98273284,0,0,1.034376,-0.01510923,0)"
     style="font-style:normal;font-weight:normal;font-size:9.87524796px;line-height:1.25;font-family:sans-serif;letter-spacing:0px;word-spacing:0px;fill:#FFFFFF;fill-opacity:1;stroke:none;stroke-width:0.24688113"
     id="text826">
    <path
       d="m 6.8237131,17.278458 4.9358009,6.970869 h 4.844677 L 9.4207035,14.66628 15.708154,7.8169081 H 10.984973 L 6.2617912,12.889392 4.8645801,14.453661 V 0.92197466 H 0.94631389 V 24.249327 H 4.8645801 v -5.14842 z"
       style="font-style:normal;font-variant:normal;font-weight:bold;font-stretch:normal;font-size:31.10313606px;font-family:'Roboto Mono';-inkscape-font-specification:'Roboto Mono Bold';fill:#FFFFFF;fill-opacity:1;stroke-width:0.24688113"
       id="path815"
       inkscape:connector-curvature="0" />
  </g>

 </g> <g transform="translate(101, 138) scale(1.1, 1) "> <g
     aria-label="A"
     transform="matrix(0.93184692,0,0,1.0979832,-0.0696722,0)"
     style="font-style:normal;font-weight:normal;font-size:9.83330441px;line-height:1.25;font-family:sans-serif;letter-spacing:0px;word-spacing:0px;fill:#FFFFFF;fill-opacity:1;stroke:none;stroke-width:0.24583255"
     id="text826">
    <path
       d="m 12.433576,18.020441 1.376155,4.824101 h 4.314553 L 11.077164,0.82607406 H 7.5384821 L 0.34013693,22.844542 H 4.6698129 L 6.0610897,18.020441 Z M 7.044057,14.648107 9.2927006,6.6384133 11.480854,14.648107 Z"
       style="font-style:normal;font-variant:normal;font-weight:bold;font-stretch:normal;font-size:30.97103119px;font-family:'Roboto Mono';-inkscape-font-specification:'Roboto Mono Bold';fill:#FFFFFF;fill-opacity:1;stroke-width:0.24583255"
       id="path815"
       inkscape:connector-curvature="0"
       sodipodi:nodetypes="ccccccccccccc" />
  </g>

 </g><g transform="translate(120.8, 138) scale(1.1, 1) "> <g
     aria-label="r"
     transform="scale(1.0162181,0.98404076)"
     style="font-style:normal;font-weight:normal;font-size:10.97190666px;line-height:1.25;font-family:sans-serif;letter-spacing:0px;word-spacing:0px;fill:#FFFFFF;fill-opacity:1;stroke:none;stroke-width:0.2742976"
     id="text826">
    <path
       d="m 11.951208,6.8949876 q -1.872972,0 -3.4253453,0.894302 Q 6.9734894,8.6667179 5.8598303,10.202218 L 5.8260831,9.780377 5.6404733,7.23246 H 1.5739303 V 25.489719 H 5.9441985 V 14.370002 q 0.3037252,-0.79306 0.7930602,-1.383637 0.4893351,-0.60745 1.1642799,-0.995543 0.5905768,-0.37122 1.3667635,-0.55683 0.7761869,-0.18561 1.7379829,-0.18561 0.877429,0 1.805478,0.118116 0.944923,0.101241 1.872972,0.320598 L 15.325932,7.3505754 Q 14.785977,7.1649656 13.874801,7.0299766 12.963625,6.8949876 11.951208,6.8949876 Z"
       style="font-style:normal;font-variant:normal;font-weight:bold;font-stretch:normal;font-size:34.5571785px;font-family:'Roboto Mono';-inkscape-font-specification:'Roboto Mono Bold';fill:#FFFFFF;fill-opacity:1;stroke-width:0.2742976"
       id="path815" />
  </g>

 </g><g transform="translate(140.6, 138) scale(1.1, 1) "> <g
     aria-label="r"
     transform="scale(1.0162181,0.98404076)"
     style="font-style:normal;font-weight:normal;font-size:10.97190666px;line-height:1.25;font-family:sans-serif;letter-spacing:0px;word-spacing:0px;fill:#FFFFFF;fill-opacity:1;stroke:none;stroke-width:0.2742976"
     id="text826">
    <path
       d="m 11.951208,6.8949876 q -1.872972,0 -3.4253453,0.894302 Q 6.9734894,8.6667179 5.8598303,10.202218 L 5.8260831,9.780377 5.6404733,7.23246 H 1.5739303 V 25.489719 H 5.9441985 V 14.370002 q 0.3037252,-0.79306 0.7930602,-1.383637 0.4893351,-0.60745 1.1642799,-0.995543 0.5905768,-0.37122 1.3667635,-0.55683 0.7761869,-0.18561 1.7379829,-0.18561 0.877429,0 1.805478,0.118116 0.944923,0.101241 1.872972,0.320598 L 15.325932,7.3505754 Q 14.785977,7.1649656 13.874801,7.0299766 12.963625,6.8949876 11.951208,6.8949876 Z"
       style="font-style:normal;font-variant:normal;font-weight:bold;font-stretch:normal;font-size:34.5571785px;font-family:'Roboto Mono';-inkscape-font-specification:'Roboto Mono Bold';fill:#FFFFFF;fill-opacity:1;stroke-width:0.2742976"
       id="path815" />
  </g>

 </g><g transform="translate(160.4, 138) scale(1.1, 1) "> <g
     aria-label="o"
     transform="scale(0.95677922,1.0451732)"
     style="font-style:normal;font-weight:normal;font-size:10.15703297px;line-height:1.25;font-family:sans-serif;letter-spacing:0px;word-spacing:0px;fill:#FFFFFF;fill-opacity:1;stroke:none;stroke-width:0.25392577"
     id="text826">
    <path
       d="m 0.97603546,15.098557 v 0.328029 q 0,1.858831 0.53109474,3.436495 0.5310948,1.562044 1.5620434,2.717956 0.9997077,1.155912 2.4680285,1.81197 1.4839412,0.640438 3.3740137,0.640438 1.8744522,0 3.3427732,-0.640438 1.46832,-0.656058 2.483649,-1.81197 0.999707,-1.155912 1.530802,-2.717956 0.531095,-1.577664 0.531095,-3.436495 v -0.328029 q 0,-1.843211 -0.531095,-3.405255 Q 15.737345,10.115638 14.737638,8.9597263 13.706689,7.8038142 12.238368,7.147756 10.770047,6.4916978 8.8799749,6.4916978 q -1.874452,0 -3.3427728,0.6560582 Q 4.0688813,7.8038142 3.0691736,8.9597263 2.038225,10.115638 1.5071302,11.693302 0.97603546,13.255346 0.97603546,15.098557 Z m 4.03007194,0.328029 v -0.328029 q 0,-1.07781 0.218686,-2.030657 0.2343065,-0.968467 0.7029196,-1.702627 0.468613,-0.749781 1.2027734,-1.171532 0.7341603,-0.4217522 1.7494885,-0.4217522 1.0309487,0 1.7651091,0.4217522 0.73416,0.421751 1.202773,1.171532 0.452993,0.73416 0.671679,1.702627 0.234306,0.952847 0.234306,2.030657 v 0.328029 q 0,1.109051 -0.234306,2.077518 -0.218686,0.968466 -0.671679,1.687006 -0.468613,0.749781 -1.202773,1.171533 -0.7341604,0.421752 -1.7338682,0.421752 -1.0309486,0 -1.7807294,-0.421752 Q 6.396326,19.940891 5.927713,19.19111 5.4590999,18.47257 5.2247934,17.504104 5.0061074,16.535637 5.0061074,15.426586 Z"
       style="font-style:normal;font-variant:normal;font-weight:bold;font-stretch:normal;font-size:31.99064827px;font-family:'Roboto Mono';-inkscape-font-specification:'Roboto Mono Bold';fill:#FFFFFF;fill-opacity:1;stroke-width:0.25392577"
       id="path815" />
  </g>

 </g><g transform="translate(180.2, 138) scale(1.1, 1) "> <g
     aria-label="w"
     transform="matrix(0.95243879,0,0,1.1089486,-0.4803343,0)"
     style="font-style:normal;font-weight:normal;font-size:9.73607159px;line-height:1.25;font-family:sans-serif;letter-spacing:0px;word-spacing:0px;fill:#FFFFFF;fill-opacity:1;stroke:none;stroke-width:0.24340172"
     id="text826">
    <path
       d="m 3.8696827,22.618652 h 3.3389878 c 0.7448338,-3.58349 1.5535301,-6.240593 2.2309829,-9.834039 0.7038366,3.593366 1.5246636,6.252607 2.3058486,9.834039 h 3.338987 L 18.109043,6.4178233 h -3.67284 C 13.910649,10.250777 13.736088,12.532151 13.188841,16.362878 12.503365,12.521104 11.935252,10.249101 11.174891,6.4178233 H 7.788192 C 7.1890428,10.254268 6.5409076,12.650059 5.8428937,16.427609 5.4441218,12.821416 5.1649248,10.217375 4.6412501,6.4178233 H 0.84512863 Z"
       style="font-style:normal;font-variant:normal;font-weight:bold;font-stretch:normal;font-size:30.66478539px;font-family:'Roboto Mono';-inkscape-font-specification:'Roboto Mono Bold';fill:#FFFFFF;fill-opacity:1;stroke-width:0.24340172"
       id="path815"
       inkscape:connector-curvature="0"
       sodipodi:nodetypes="cccccccccccccc" />
  </g>

 </g> </svg>
